<svg width="55" height="34" viewBox="0 0 55 34" fill="none" xmlns="http://www.w3.org/2000/svg">
<path opacity="0.07" d="M50.2503 0H4.91699C2.50866 0 0.666992 1.84167 0.666992 4.25V29.75C0.666992 32.1583 2.65033 34 4.91699 34H50.2503C52.6587 34 54.5003 32.1583 54.5003 29.75V4.25C54.5003 1.84167 52.517 0 50.2503 0Z" fill="#434648"/>
<path d="M50.2506 1.41699C51.809 1.41699 53.084 2.69199 53.084 4.25033V29.7503C53.084 31.3087 51.809 32.5837 50.2506 32.5837H4.91732C3.35898 32.5837 2.08398 31.3087 2.08398 29.7503V4.25033C2.08398 2.69199 3.35898 1.41699 4.91732 1.41699H50.2506Z" fill="#006FCF"/>
<path d="M13.3762 14.546L14.4727 17.2037H12.2882L13.3762 14.546ZM36.1491 14.6565H31.9317V15.8281H36.0811V17.5833H31.9402V18.8895H36.1576V19.9364L39.1001 16.756L36.1576 13.441L36.1491 14.6565ZM16.2266 11.3415H21.8862L23.1427 14.0828L24.3072 11.333H38.9981L40.5252 13.0188L42.1048 11.333H48.8524L43.8671 16.79L48.8014 22.213H41.9532L40.4261 20.5272L38.8323 22.213H14.8765L14.1767 20.5272H12.5758L11.8746 22.213H6.33398L10.9892 11.333H15.8483L16.2266 11.3415ZM28.4992 12.8687H25.3272L23.2022 17.878L20.9002 12.8687H17.7523V19.6828L14.834 12.8687H12.0106L8.63607 20.6773H10.839L11.5388 18.9915H15.2165L15.9163 20.6773H19.7697V15.1028L22.2502 20.6858H23.9361L26.4011 15.1198V20.6873H28.4666L28.5006 12.8673L28.4992 12.8687ZM41.7308 16.79L45.3164 12.8687H42.7352L40.4672 15.3138L38.2741 12.8687H29.9243V20.6858H38.1551L40.4417 18.2237L42.6347 20.6858H45.2909L41.7322 16.79H41.7308Z" fill="white"/>
</svg>
