<svg width="44" height="12" viewBox="0 0 44 12" fill="none" xmlns="http://www.w3.org/2000/svg">
<path d="M7.70924 3.54601L8.80574 6.20367H6.62124L7.70924 3.54601ZM30.4822 3.65651H26.2647V4.82809H30.4142V6.58334H26.2732V7.88951H30.4907V8.93643L33.4331 5.75601L30.4907 2.44101L30.4822 3.65651ZM10.5596 0.341507H16.2192L17.4757 3.08276L18.6402 0.333008H33.3311L34.8582 2.01884L36.4378 0.333008H43.1854L38.2002 5.79001L43.1344 11.213H36.2862L34.7591 9.52717L33.1653 11.213H9.20949L8.50966 9.52717H6.90883L6.20757 11.213H0.666992L5.32216 0.333008H10.1813L10.5596 0.341507ZM22.8322 1.86867H19.6602L17.5352 6.87801L15.2332 1.86867H12.0853V8.68284L9.16699 1.86867H6.34358L2.96908 9.67734H5.17199L5.87183 7.99151H9.54949L10.2493 9.67734H14.1027V4.10276L16.5832 9.68584H18.2691L20.7341 4.11976V9.68726H22.7996L22.8336 1.86726L22.8322 1.86867ZM36.0638 5.79001L39.6494 1.86867H37.0682L34.8002 4.31384L32.6072 1.86867H24.2573V9.68584H32.4882L34.7747 7.22368L36.9677 9.68584H39.6239L36.0652 5.79001H36.0638Z" fill="white"/>
</svg>
