<svg width="54" height="34" viewBox="0 0 54 34" fill="none" xmlns="http://www.w3.org/2000/svg">
<path opacity="0.07" d="M49.5833 0H4.25C1.84167 0 0 1.84167 0 4.25V29.75C0 32.1583 1.98333 34 4.25 34H49.5833C51.9917 34 53.8333 32.1583 53.8333 29.75V4.25C53.8333 1.84167 51.85 0 49.5833 0Z" fill="#434648"/>
<path d="M49.5837 1.41699C51.142 1.41699 52.417 2.69199 52.417 4.25033V29.7503C52.417 31.3087 51.142 32.5837 49.5837 32.5837H4.25033C2.69199 32.5837 1.41699 31.3087 1.41699 29.7503V4.25033C1.41699 2.69199 2.69199 1.41699 4.25033 1.41699H49.5837Z" fill="#006FCF"/>
<path d="M12.7092 14.546L13.8057 17.2037H11.6212L12.7092 14.546ZM35.4822 14.6565H31.2647V15.8281H35.4142V17.5833H31.2732V18.8895H35.4907V19.9364L38.4331 16.756L35.4907 13.441L35.4822 14.6565ZM15.5596 11.3415H21.2192L22.4757 14.0828L23.6402 11.333H38.3311L39.8582 13.0188L41.4378 11.333H48.1854L43.2002 16.79L48.1344 22.213H41.2862L39.7591 20.5272L38.1653 22.213H14.2095L13.5097 20.5272H11.9088L11.2076 22.213H5.66699L10.3222 11.333H15.1813L15.5596 11.3415ZM27.8322 12.8687H24.6602L22.5352 17.878L20.2332 12.8687H17.0853V19.6828L14.167 12.8687H11.3436L7.96908 20.6773H10.172L10.8718 18.9915H14.5495L15.2493 20.6773H19.1027V15.1028L21.5832 20.6858H23.2691L25.7341 15.1198V20.6873H27.7996L27.8336 12.8673L27.8322 12.8687ZM41.0638 16.79L44.6494 12.8687H42.0682L39.8002 15.3138L37.6072 12.8687H29.2573V20.6858H37.4882L39.7747 18.2237L41.9677 20.6858H44.6239L41.0652 16.79H41.0638Z" fill="white"/>
</svg>
