<svg width="163" height="54" viewBox="0 0 163 54" fill="none" xmlns="http://www.w3.org/2000/svg">
<rect width="163" height="54" rx="27" fill="#3C3F3F"/>
<path d="M57.757 18.1227L57.1714 20.0749H55.8701L58.0824 13.2419H59.709L61.9213 20.0749H60.5549L59.9042 18.1227H57.757ZM59.7741 17.1465L59.2536 15.4545C59.1234 15.0641 58.9933 14.5435 58.9282 14.153C58.7981 14.5435 58.733 14.999 58.6029 15.4545L58.0173 17.1465H59.7741Z" fill="white"/>
<path d="M63.8084 15.1289L64.5892 17.6669C64.7194 18.1224 64.8495 18.5129 64.9146 18.9033C64.9796 18.5129 65.1098 18.1224 65.2399 17.6669L66.0207 15.1289H67.322L65.4351 20.0747H64.1988L62.377 15.1289H63.8084Z" fill="white"/>
<path d="M72.3977 18.8385C72.3977 19.2941 72.3977 19.7496 72.4628 20.0099H71.3565L71.2914 19.4893C70.9661 19.8797 70.5105 20.14 69.8598 20.14C68.8836 20.14 68.2979 19.4242 68.2979 18.6433C68.2979 17.4068 69.4042 16.7561 71.2264 16.7561V16.691C71.2264 16.3656 71.0962 15.845 70.2502 15.845C69.7947 15.845 69.2741 15.9752 68.9487 16.2355L68.6884 15.4546C69.0789 15.2593 69.6645 14.999 70.4455 14.999C72.0073 14.999 72.4628 15.9752 72.4628 17.0815V18.8385H72.3977ZM71.1613 17.6671C70.2502 17.6671 69.4042 17.8624 69.4042 18.5782C69.4042 19.0337 69.7296 19.2941 70.1201 19.2941C70.6407 19.2941 70.9661 18.9687 71.0962 18.6433C71.0962 18.5782 71.0962 18.4481 71.0962 18.383V17.6671H71.1613Z" fill="white"/>
<path d="M74.7393 14.4138C74.3488 14.4138 74.0234 14.0884 74.0234 13.7631C74.0234 13.3726 74.2837 13.1123 74.7393 13.1123C75.1948 13.1123 75.4551 13.4377 75.4551 13.7631C75.4551 14.0884 75.1948 14.4138 74.7393 14.4138ZM74.1536 20.0755V15.1297H75.39V20.0755H74.1536Z" fill="white"/>
<path d="M77.2119 12.8516H78.4484V20.075H77.2119V12.8516Z" fill="white"/>
<path d="M84.1096 18.8385C84.1096 19.2941 84.1096 19.7496 84.1746 20.0099H83.0683L83.0033 19.4893C82.6779 19.8797 82.2224 20.14 81.5716 20.14C80.5954 20.14 80.0098 19.4242 80.0098 18.6433C80.0098 17.4068 81.1161 16.7561 82.9382 16.7561V16.691C82.9382 16.3656 82.808 15.845 81.9621 15.845C81.5065 15.845 80.9859 15.9752 80.6605 16.2355L80.4002 15.4546C80.7907 15.2593 81.3764 14.999 82.1573 14.999C83.7191 14.999 84.1746 15.9752 84.1746 17.0815V18.8385H84.1096ZM82.8731 17.6671C81.962 17.6671 81.1161 17.8624 81.1161 18.5782C81.1161 19.0337 81.4414 19.2941 81.8319 19.2941C82.3525 19.2941 82.6779 18.9687 82.808 18.6433C82.808 18.5782 82.808 18.4481 82.808 18.383V17.6671H82.8731Z" fill="white"/>
<path d="M85.8652 12.8516H87.1017V15.78C87.4271 15.3245 87.9477 14.9991 88.6635 14.9991C89.9 14.9991 90.7459 15.9752 90.7459 17.537C90.7459 19.2941 89.6397 20.2052 88.5334 20.2052C87.8826 20.2052 87.2969 19.9449 86.9715 19.3592L86.9065 20.075H85.8652C85.8652 19.7496 85.9303 19.1639 85.9303 18.7084V12.8516H85.8652ZM87.1017 17.9926C87.1017 18.1227 87.1017 18.1878 87.1017 18.318C87.2318 18.8386 87.6874 19.1639 88.208 19.1639C88.9889 19.1639 89.4444 18.5132 89.4444 17.537C89.4444 16.6911 89.054 15.9752 88.208 15.9752C87.6874 15.9752 87.2318 16.3657 87.1017 16.8863C87.1017 16.9514 87.0366 17.0815 87.0366 17.2117V17.9926H87.1017Z" fill="white"/>
<path d="M92.2422 12.8516H93.4786V20.075H92.2422V12.8516Z" fill="white"/>
<path d="M96.1466 17.9278C96.1466 18.8389 96.8624 19.2293 97.6434 19.2293C98.229 19.2293 98.6195 19.1643 99.01 19.0341L99.2052 19.8801C98.7497 20.0753 98.164 20.2055 97.4481 20.2055C95.8212 20.2055 94.9102 19.2293 94.9102 17.7326C94.9102 16.366 95.7561 15.0645 97.318 15.0645C98.9449 15.0645 99.4655 16.366 99.4655 17.4723C99.4655 17.7326 99.4655 17.8627 99.4004 17.9929H96.1466V17.9278ZM98.3592 17.0818C98.3592 16.6263 98.164 15.8454 97.318 15.8454C96.5371 15.8454 96.2117 16.5612 96.1466 17.0818H98.3592Z" fill="white"/>
<path d="M105.711 20.14C104.344 20.14 103.238 19.1639 103.238 17.6021C103.238 15.9752 104.279 14.999 105.776 14.999C107.272 14.999 108.248 16.0402 108.248 17.537C108.248 19.3591 106.947 20.14 105.711 20.14ZM105.711 19.2941C106.427 19.2941 106.947 18.5782 106.947 17.6021C106.947 16.8212 106.622 15.9101 105.776 15.9101C104.865 15.9101 104.54 16.7561 104.54 17.6021C104.475 18.5131 104.995 19.2941 105.711 19.2941Z" fill="white"/>
<path d="M109.68 16.5605C109.68 15.9748 109.68 15.5193 109.615 15.0637H110.722L110.787 15.7796C110.982 15.3891 111.568 14.9336 112.348 14.9336C113.194 14.9336 114.105 15.5193 114.105 17.0811V20.0095H112.869V17.2113C112.869 16.4954 112.609 15.9748 111.893 15.9748C111.372 15.9748 111.047 16.3002 110.917 16.6907C110.852 16.8208 110.852 16.951 110.852 17.0811V20.0095H109.615V16.5605H109.68Z" fill="white"/>
<path d="M119.961 13.8281V15.1296H121.132V16.0407H119.961V18.1882C119.961 18.7739 120.091 19.0993 120.611 19.0993C120.807 19.0993 120.937 19.0993 121.067 19.0342V20.0104C120.872 20.0754 120.546 20.1405 120.156 20.1405C119.7 20.1405 119.31 20.0104 119.05 19.7501C118.789 19.4898 118.659 19.0342 118.659 18.3835V16.0407H117.943V15.1296H118.659V14.2186L119.961 13.8281Z" fill="white"/>
<path d="M122.498 12.8516H123.734V15.78C123.865 15.5197 124.125 15.3245 124.385 15.1943C124.646 15.0642 124.906 14.9991 125.231 14.9991C126.077 14.9991 126.988 15.5848 126.988 17.1466V20.075H125.752V17.2767C125.752 16.5609 125.492 16.0403 124.776 16.0403C124.32 16.0403 123.93 16.3657 123.8 16.7561C123.734 16.8863 123.734 17.0164 123.734 17.1466V20.1401H122.498V12.8516Z" fill="white"/>
<path d="M129.655 17.9278C129.655 18.8389 130.371 19.2293 131.152 19.2293C131.738 19.2293 132.128 19.1643 132.519 19.0341L132.714 19.8801C132.258 20.0753 131.673 20.2055 130.957 20.2055C129.33 20.2055 128.419 19.2293 128.419 17.7326C128.419 16.366 129.265 15.0645 130.827 15.0645C132.454 15.0645 132.974 16.366 132.974 17.4723C132.974 17.7326 132.974 17.8627 132.909 17.9929H129.655V17.9278ZM131.803 17.0818C131.803 16.6263 131.608 15.8454 130.762 15.8454C129.981 15.8454 129.655 16.5612 129.59 17.0818H131.803Z" fill="white"/>
<path d="M42.9386 26.0085C42.9386 22.6822 45.6887 21.0831 45.8167 20.9552C44.2817 18.6524 41.8514 18.3965 40.956 18.3326C38.9094 18.1407 36.9267 19.5479 35.9034 19.5479C34.8161 19.5479 33.2812 18.3326 31.5544 18.3965C29.3159 18.4605 27.2693 19.7398 26.1181 21.7227C23.7517 25.7526 25.5425 31.7654 27.7809 35.0277C28.9322 36.6268 30.2113 38.4178 31.9381 38.3539C33.601 38.2899 34.2405 37.2665 36.2871 37.2665C38.2698 37.2665 38.9094 38.3539 40.6362 38.2899C42.427 38.2899 43.5782 36.6908 44.6654 35.0277C45.9446 33.1726 46.4562 31.3816 46.5202 31.2537C46.3923 31.3176 42.9386 29.9743 42.9386 26.0085Z" fill="white"/>
<path d="M39.6122 16.2217C40.5076 15.0704 41.1472 13.5352 40.9553 12C39.6762 12.064 38.0133 12.8955 37.054 13.9829C36.2225 14.9424 35.4551 16.5416 35.6469 18.0768C37.1819 18.1407 38.6529 17.3092 39.6122 16.2217Z" fill="white"/>
<path d="M67.1782 38.0979H64.8118L63.5326 34.068H59.0557L57.8405 38.0979H55.5381L59.9511 24.4092H62.7012L67.1782 38.0979ZM63.1489 32.3409L61.9977 28.7589C61.8698 28.3751 61.6139 27.5435 61.2942 26.2002H61.2302C61.1023 26.7759 60.8465 27.6714 60.5906 28.7589L59.4394 32.3409H63.1489Z" fill="white"/>
<path d="M78.5632 32.981C78.5632 34.6442 78.1155 35.9874 77.2201 36.9469C76.3887 37.8424 75.3654 38.2262 74.2142 38.2262C72.935 38.2262 71.9757 37.7785 71.4001 36.819H71.3361V42.0002H69.1616V31.4459C69.1616 30.3584 69.1616 29.335 69.0977 28.1836H71.0164L71.1443 29.7188H71.2082C71.9117 28.5674 73.063 27.9277 74.534 27.9277C75.6852 27.9277 76.6445 28.3755 77.476 29.335C78.1155 30.2945 78.5632 31.5098 78.5632 32.981ZM76.3247 33.109C76.3247 32.1495 76.1329 31.3819 75.6852 30.7422C75.2375 30.1026 74.5979 29.7827 73.7665 29.7827C73.2548 29.7827 72.7432 29.9746 72.2955 30.2945C71.8478 30.6783 71.592 31.126 71.4001 31.7017C71.3361 31.9576 71.2722 32.2134 71.2722 32.3414V34.0045C71.2722 34.7081 71.464 35.3478 71.9117 35.7955C72.3594 36.3073 72.935 36.5631 73.6386 36.5631C74.47 36.5631 75.1096 36.2433 75.5573 35.6036C76.0689 34.964 76.3247 34.1324 76.3247 33.109Z" fill="white"/>
<path d="M89.8825 32.981C89.8825 34.6442 89.4349 35.9874 88.5395 36.9469C87.708 37.8424 86.7487 38.2262 85.5335 38.2262C84.2544 38.2262 83.295 37.7785 82.7194 36.819H82.6555V42.0002H80.4809V31.4459C80.4809 30.3584 80.4809 29.335 80.417 28.1836H82.3357L82.4636 29.7188H82.5276C83.2311 28.5674 84.3823 27.9277 85.8533 27.9277C87.0045 27.9277 87.9639 28.3755 88.7953 29.335C89.4988 30.2945 89.8825 31.5098 89.8825 32.981ZM87.6441 33.109C87.6441 32.1495 87.4522 31.3819 87.0045 30.7422C86.5568 30.1026 85.9172 29.7827 85.0858 29.7827C84.5742 29.7827 84.0625 29.9746 83.6148 30.2945C83.1671 30.6783 82.9113 31.126 82.7834 31.7017C82.7194 31.9576 82.6555 32.2134 82.6555 32.3414V34.0045C82.6555 34.7081 82.8473 35.3478 83.295 35.7955C83.7427 36.3073 84.3183 36.5631 85.0219 36.5631C85.8533 36.5631 86.4929 36.2433 86.9405 35.6036C87.4522 34.964 87.6441 34.1324 87.6441 33.109Z" fill="white"/>
<path d="M102.61 34.1965C102.61 35.3478 102.226 36.3073 101.395 37.0749C100.499 37.9065 99.284 38.2903 97.6851 38.2903C96.2141 38.2903 94.9989 38.0344 94.1035 37.4587L94.6152 35.6037C95.5745 36.1794 96.6618 36.4992 97.813 36.4992C98.6444 36.4992 99.284 36.3073 99.7317 35.9235C100.179 35.5397 100.435 35.028 100.435 34.4523C100.435 33.8766 100.243 33.4289 99.8596 33.0451C99.4759 32.6613 98.8363 32.3414 97.9409 31.9576C95.5106 31.0621 94.3593 29.7188 94.3593 28.0557C94.3593 26.9043 94.807 26.0088 95.6385 25.3052C96.4699 24.6016 97.6211 24.2178 98.9642 24.2178C100.243 24.2178 101.267 24.4097 102.098 24.8574L101.522 26.6485C100.755 26.2007 99.8596 26.0088 98.9003 26.0088C98.1328 26.0088 97.4932 26.2007 97.1095 26.5845C96.7257 26.9043 96.5339 27.3521 96.5339 27.7999C96.5339 28.3116 96.7257 28.7594 97.1734 29.1431C97.5572 29.463 98.1967 29.8468 99.1561 30.2306C100.307 30.6783 101.203 31.254 101.778 31.8937C102.354 32.4694 102.61 33.3009 102.61 34.1965Z" fill="white"/>
<path d="M109.901 29.8467H107.471V34.6442C107.471 35.8595 107.918 36.4992 108.75 36.4992C109.134 36.4992 109.453 36.4352 109.709 36.3713L109.773 38.0344C109.325 38.2263 108.75 38.2902 108.046 38.2902C107.151 38.2902 106.511 38.0344 106 37.5227C105.488 37.0109 105.296 36.1154 105.296 34.8361V29.8467H103.825V28.1836H105.296V26.3926L107.471 25.7529V28.1836H109.901V29.8467Z" fill="white"/>
<path d="M120.774 33.0455C120.774 34.5807 120.326 35.796 119.495 36.8195C118.599 37.8429 117.384 38.3547 115.849 38.3547C114.378 38.3547 113.227 37.8429 112.395 36.8834C111.564 35.924 111.116 34.7086 111.116 33.2374C111.116 31.7022 111.564 30.4229 112.459 29.4634C113.355 28.5039 114.57 27.9922 116.041 27.9922C117.512 27.9922 118.663 28.5039 119.558 29.4634C120.39 30.3589 120.774 31.5743 120.774 33.0455ZM118.535 33.1095C118.535 32.2139 118.343 31.4463 117.96 30.7427C117.512 29.9751 116.872 29.5274 115.977 29.5274C115.082 29.5274 114.442 29.9112 113.994 30.7427C113.611 31.3824 113.419 32.2139 113.419 33.1095C113.419 34.005 113.611 34.7726 113.994 35.4762C114.442 36.2438 115.145 36.6276 115.977 36.6276C116.808 36.6276 117.448 36.2438 117.96 35.4122C118.343 34.8365 118.535 34.005 118.535 33.1095Z" fill="white"/>
<path d="M127.936 30.1026C127.744 30.0386 127.489 30.0386 127.233 30.0386C126.465 30.0386 125.89 30.3584 125.442 30.9341C125.058 31.4459 124.866 32.0855 124.866 32.9171V38.0983H122.692V31.3179C122.692 30.1665 122.692 29.1431 122.628 28.1836H124.547L124.611 30.1026H124.675C124.93 29.4629 125.25 28.9512 125.762 28.5674C126.273 28.1836 126.785 28.0557 127.361 28.0557C127.553 28.0557 127.744 28.0557 127.936 28.1196V30.1026Z" fill="white"/>
<path d="M137.786 32.6612C137.786 33.045 137.786 33.3648 137.722 33.6847H131.135C131.135 34.6442 131.455 35.4117 132.094 35.9235C132.67 36.3712 133.373 36.6271 134.269 36.6271C135.228 36.6271 136.124 36.4992 136.955 36.1793L137.275 37.7145C136.315 38.0983 135.228 38.3542 133.949 38.3542C132.414 38.3542 131.199 37.9064 130.368 37.0109C129.472 36.1154 129.024 34.9 129.024 33.3648C129.024 31.8936 129.408 30.6143 130.24 29.6548C131.071 28.5674 132.222 28.0557 133.693 28.0557C135.1 28.0557 136.188 28.5674 136.955 29.6548C137.467 30.3584 137.786 31.4459 137.786 32.6612ZM135.676 32.0855C135.676 31.4459 135.548 30.8702 135.228 30.4224C134.844 29.7827 134.269 29.5269 133.501 29.5269C132.798 29.5269 132.222 29.8467 131.775 30.4224C131.391 30.8702 131.199 31.4459 131.135 32.1495H135.676V32.0855Z" fill="white"/>
</svg>
