<svg width="22" height="27" viewBox="0 0 22 27" fill="none" xmlns="http://www.w3.org/2000/svg">
<path d="M17.9386 14.0085C17.9386 10.6822 20.6887 9.08309 20.8167 8.95516C19.2817 6.65239 16.8514 6.39652 15.956 6.33256C13.9094 6.14066 11.9267 7.54791 10.9034 7.54791C9.81615 7.54791 8.28119 6.33256 6.55437 6.39652C4.31589 6.46049 2.26928 7.73981 1.11807 9.72275C-1.24832 13.7526 0.542459 19.7654 2.78094 23.0277C3.93215 24.6268 5.21128 26.4178 6.9381 26.3539C8.60097 26.2899 9.24054 25.2665 11.2871 25.2665C13.2698 25.2665 13.9094 26.3539 15.6362 26.2899C17.427 26.2899 18.5782 24.6908 19.6654 23.0277C20.9446 21.1726 21.4562 19.3816 21.5202 19.2537C21.3923 19.3176 17.9386 17.9743 17.9386 14.0085Z" fill="white"/>
<path d="M14.6122 4.22175C15.5076 3.07036 16.1472 1.53518 15.9553 0C14.6762 0.0639659 13.0133 0.895523 12.054 1.98294C11.2225 2.94243 10.4551 4.54158 10.6469 6.07676C12.1819 6.14073 13.6529 5.30917 14.6122 4.22175Z" fill="white"/>
</svg>
