<svg width="20" height="20" viewBox="0 0 20 20" fill="none" xmlns="http://www.w3.org/2000/svg">
<path d="M0.666667 1.33333H2.80533L5.162 11.3507C4.64805 11.3927 4.17037 11.6322 3.82916 12.0188C3.48795 12.4055 3.30973 12.9092 3.33189 13.4244C3.35406 13.9396 3.57488 14.4262 3.94803 14.7821C4.32119 15.138 4.81767 15.3356 5.33333 15.3333H16.6667C16.8435 15.3333 17.0131 15.2631 17.1381 15.1381C17.2631 15.013 17.3333 14.8435 17.3333 14.6667C17.3333 14.4899 17.2631 14.3203 17.1381 14.1953C17.0131 14.0702 16.8435 14 16.6667 14H5.33333C5.15652 14 4.98695 13.9298 4.86193 13.8047C4.73691 13.6797 4.66667 13.5101 4.66667 13.3333C4.66667 13.1565 4.73691 12.987 4.86193 12.8619C4.98695 12.7369 5.15652 12.6667 5.33333 12.6667H16.588C17.0391 12.6678 17.4772 12.5159 17.8308 12.2359C18.1844 11.9558 18.4325 11.564 18.5347 11.1247L19.9473 5.12467C20.0164 4.83106 20.0182 4.52563 19.9525 4.23124C19.8868 3.93685 19.7554 3.66113 19.5681 3.42471C19.3808 3.18828 19.1425 2.99729 18.8709 2.86602C18.5994 2.73474 18.3016 2.66659 18 2.66667H4.48867L3.98267 0.514C3.94824 0.367661 3.86536 0.237254 3.74749 0.143948C3.62962 0.0506414 3.48367 -8.61125e-05 3.33333 1.09733e-07H0.666667C0.489856 1.09733e-07 0.320286 0.070238 0.195262 0.195262C0.0702379 0.320286 0 0.489856 0 0.666667C0 0.843478 0.0702379 1.01305 0.195262 1.13807C0.320286 1.2631 0.489856 1.33333 0.666667 1.33333ZM18 4C18.0999 4.00191 18.1982 4.02589 18.2877 4.07024C18.3772 4.11459 18.4559 4.1782 18.5179 4.25651C18.58 4.33482 18.624 4.4259 18.6467 4.5232C18.6694 4.62051 18.6703 4.72163 18.6493 4.81933L17.236 10.8193C17.2023 10.9658 17.1198 11.0964 17.002 11.1898C16.8843 11.2832 16.7383 11.3338 16.588 11.3333H6.528L4.8 4H18Z" fill="black"/>
<path d="M12.6668 18C12.6668 18.3956 12.7841 18.7822 13.0039 19.1111C13.2236 19.44 13.536 19.6964 13.9014 19.8478C14.2669 19.9991 14.669 20.0387 15.057 19.9616C15.445 19.8844 15.8013 19.6939 16.081 19.4142C16.3607 19.1345 16.5512 18.7781 16.6284 18.3902C16.7056 18.0022 16.6659 17.6001 16.5146 17.2346C16.3632 16.8692 16.1068 16.5568 15.7779 16.3371C15.4491 16.1173 15.0624 16 14.6668 16C14.1364 16 13.6277 16.2107 13.2526 16.5858C12.8775 16.9609 12.6668 17.4696 12.6668 18ZM15.3335 18C15.3335 18.1319 15.2944 18.2607 15.2211 18.3704C15.1479 18.48 15.0437 18.5655 14.9219 18.6159C14.8001 18.6664 14.6661 18.6796 14.5367 18.6539C14.4074 18.6281 14.2886 18.5646 14.1954 18.4714C14.1022 18.3782 14.0387 18.2594 14.013 18.1301C13.9872 18.0007 14.0004 17.8667 14.0509 17.7449C14.1013 17.6231 14.1868 17.5189 14.2964 17.4457C14.4061 17.3724 14.535 17.3333 14.6668 17.3333C14.8436 17.3333 15.0132 17.4036 15.1382 17.5286C15.2632 17.6536 15.3335 17.8232 15.3335 18Z" fill="black"/>
<path d="M5.33398 18C5.33398 18.3956 5.45128 18.7822 5.67105 19.1111C5.89081 19.44 6.20317 19.6964 6.56862 19.8478C6.93407 19.9991 7.3362 20.0387 7.72417 19.9616C8.11213 19.8844 8.46849 19.6939 8.7482 19.4142C9.0279 19.1345 9.21839 18.7781 9.29556 18.3902C9.37273 18.0022 9.33312 17.6001 9.18174 17.2346C9.03037 16.8692 8.77402 16.5568 8.44513 16.3371C8.11623 16.1173 7.72955 16 7.33398 16C6.80355 16 6.29484 16.2107 5.91977 16.5858C5.5447 16.9609 5.33398 17.4696 5.33398 18ZM8.00065 18C8.00065 18.1319 7.96155 18.2607 7.8883 18.3704C7.81504 18.48 7.71092 18.5655 7.58911 18.6159C7.46729 18.6664 7.33325 18.6796 7.20392 18.6539C7.0746 18.6281 6.95582 18.5646 6.86258 18.4714C6.76935 18.3782 6.70585 18.2594 6.68013 18.1301C6.6544 18.0007 6.66761 17.8667 6.71806 17.7449C6.76852 17.6231 6.85397 17.5189 6.9636 17.4457C7.07324 17.3724 7.20213 17.3333 7.33398 17.3333C7.5108 17.3333 7.68036 17.4036 7.80539 17.5286C7.93041 17.6536 8.00065 17.8232 8.00065 18Z" fill="black"/>
</svg>
