<svg width="28" height="28" viewBox="0 0 28 28" fill="none" xmlns="http://www.w3.org/2000/svg">
<path d="M0.933295 1.86659H3.92731L7.2265 15.8903C6.50701 15.9492 5.83827 16.2844 5.3606 16.8257C4.88293 17.3669 4.63343 18.0722 4.66446 18.7934C4.69549 19.5146 5.00463 20.1958 5.52702 20.6941C6.04941 21.1923 6.74446 21.4689 7.46636 21.4658H23.3324C23.5799 21.4658 23.8173 21.3675 23.9923 21.1924C24.1673 21.0174 24.2657 20.78 24.2657 20.5325C24.2657 20.285 24.1673 20.0476 23.9923 19.8725C23.8173 19.6975 23.5799 19.5992 23.3324 19.5992H7.46636C7.21883 19.5992 6.98145 19.5009 6.80642 19.3258C6.63139 19.1508 6.53306 18.9134 6.53306 18.6659C6.53306 18.4184 6.63139 18.181 6.80642 18.006C6.98145 17.8309 7.21883 17.7326 7.46636 17.7326H23.2222C23.8537 17.7342 24.4671 17.5216 24.9621 17.1295C25.4571 16.7374 25.8045 16.189 25.9475 15.5739L27.9251 7.17424C28.0218 6.7632 28.0243 6.33562 27.9324 5.92349C27.8404 5.51136 27.6565 5.12537 27.3943 4.79439C27.132 4.46341 26.7984 4.19603 26.4182 4.01226C26.038 3.82849 25.6212 3.73308 25.199 3.73318H6.28387L5.5755 0.719571C5.52731 0.514705 5.41129 0.332142 5.24627 0.201519C5.08125 0.070895 4.87693 -0.000120552 4.66647 1.5362e-07H0.933295C0.68577 1.5362e-07 0.448382 0.0983291 0.273356 0.273356C0.098329 0.448383 0 0.68577 0 0.933295C0 1.18082 0.098329 1.41821 0.273356 1.59323C0.448382 1.76826 0.68577 1.86659 0.933295 1.86659ZM25.199 5.59977C25.3388 5.60244 25.4764 5.63602 25.6017 5.6981C25.7271 5.76019 25.8371 5.84924 25.924 5.95887C26.0109 6.0685 26.0725 6.196 26.1043 6.33222C26.1361 6.46844 26.1373 6.61002 26.108 6.74679L24.1294 15.1464C24.0822 15.3515 23.9667 15.5344 23.8019 15.6651C23.637 15.7959 23.4326 15.8667 23.2222 15.866H9.13882L6.71972 5.59977H25.199Z" fill="white"/>
<path d="M17.7324 25.1993C17.7324 25.7531 17.8966 26.2944 18.2043 26.7548C18.5119 27.2153 18.9492 27.5741 19.4608 27.7861C19.9724 27.998 20.5354 28.0534 21.0785 27.9454C21.6217 27.8374 22.1206 27.5707 22.5121 27.1791C22.9037 26.7875 23.1704 26.2887 23.2784 25.7455C23.3864 25.2024 23.331 24.6394 23.1191 24.1278C22.9071 23.6162 22.5483 23.1789 22.0878 22.8713C21.6274 22.5636 21.0861 22.3994 20.5323 22.3994C19.7897 22.3994 19.0776 22.6944 18.5525 23.2195C18.0274 23.7446 17.7324 24.4567 17.7324 25.1993ZM21.4656 25.1993C21.4656 25.3839 21.4109 25.5643 21.3083 25.7178C21.2058 25.8713 21.06 25.9909 20.8895 26.0616C20.7189 26.1322 20.5313 26.1507 20.3502 26.1147C20.1692 26.0786 20.0029 25.9898 19.8724 25.8592C19.7418 25.7287 19.653 25.5624 19.6169 25.3814C19.5809 25.2003 19.5994 25.0127 19.6701 24.8421C19.7407 24.6716 19.8603 24.5258 20.0138 24.4233C20.1673 24.3207 20.3477 24.266 20.5323 24.266C20.7798 24.266 21.0172 24.3643 21.1922 24.5394C21.3673 24.7144 21.4656 24.9518 21.4656 25.1993Z" fill="white"/>
<path d="M7.4668 25.1993C7.4668 25.7531 7.63101 26.2944 7.93866 26.7548C8.24632 27.2153 8.6836 27.5741 9.19521 27.7861C9.70682 27.998 10.2698 28.0534 10.8129 27.9454C11.356 27.8374 11.8549 27.5707 12.2465 27.1791C12.6381 26.7875 12.9047 26.2887 13.0128 25.7455C13.1208 25.2024 13.0654 24.6394 12.8534 24.1278C12.6415 23.6162 12.2827 23.1789 11.8222 22.8713C11.3618 22.5636 10.8204 22.3994 10.2667 22.3994C9.52411 22.3994 8.81194 22.6944 8.28686 23.2195C7.76178 23.7446 7.4668 24.4567 7.4668 25.1993ZM11.2 25.1993C11.2 25.3839 11.1452 25.5643 11.0427 25.7178C10.9401 25.8713 10.7944 25.9909 10.6238 26.0616C10.4533 26.1322 10.2656 26.1507 10.0846 26.1147C9.90356 26.0786 9.73727 25.9898 9.60674 25.8592C9.47622 25.7287 9.38733 25.5624 9.35132 25.3814C9.31531 25.2003 9.33379 25.0127 9.40443 24.8421C9.47507 24.6716 9.59469 24.5258 9.74817 24.4233C9.90165 24.3207 10.0821 24.266 10.2667 24.266C10.5142 24.266 10.7516 24.3643 10.9266 24.5394C11.1016 24.7144 11.2 24.9518 11.2 25.1993Z" fill="white"/>
</svg>
