<svg width="176" height="54" viewBox="0 0 176 54" fill="none" xmlns="http://www.w3.org/2000/svg">
<rect width="176" height="54" rx="27" fill="#3C3F3F"/>
<path d="M88.4993 28.6097C85.94 28.6097 83.8521 30.5708 83.8521 33.2082C83.8521 35.8456 85.94 37.8068 88.4993 37.8068C91.0586 37.8068 93.1464 35.8456 93.1464 33.2082C93.0791 30.5708 91.0586 28.6097 88.4993 28.6097ZM88.4993 36.0485C87.0849 36.0485 85.8726 34.8989 85.8726 33.2758C85.8726 31.5852 87.0849 30.5032 88.4993 30.5032C89.9136 30.5032 91.1259 31.6528 91.1259 33.2758C91.0586 34.8989 89.8463 36.0485 88.4993 36.0485ZM78.3968 28.6097C75.8375 28.6097 73.7496 30.5708 73.7496 33.2082C73.7496 35.8456 75.8375 37.8068 78.3968 37.8068C80.9561 37.8068 83.0439 35.8456 83.0439 33.2082C83.0439 30.5708 80.9561 28.6097 78.3968 28.6097ZM78.3968 36.0485C76.9824 36.0485 75.7701 34.8989 75.7701 33.2758C75.7701 31.5852 76.9824 30.5032 78.3968 30.5032C79.8111 30.5032 81.0234 31.6528 81.0234 33.2758C80.9561 34.8989 79.8111 36.0485 78.3968 36.0485ZM66.4085 30.0298V31.9909H71.0556C70.9209 33.073 70.5168 33.8845 69.978 34.4931C69.3045 35.1694 68.2269 35.9132 66.3411 35.9132C63.4451 35.9132 61.2225 33.614 61.2225 30.7061C61.2225 27.7981 63.4451 25.4989 66.3411 25.4989C67.8902 25.4989 69.0351 26.1075 69.8433 26.919L71.1903 25.5665C70.0454 24.4169 68.4963 23.6053 66.2738 23.6053C62.3001 23.6053 59 26.8514 59 30.7737C59 34.7636 62.3001 37.942 66.2738 37.942C68.429 37.942 69.978 37.2658 71.2577 35.9132C72.5373 34.6283 72.9414 32.8025 72.9414 31.3147C72.9414 30.8413 72.8741 30.4356 72.8067 30.0974H66.4085V30.0298ZM115.439 31.5852C115.035 30.5708 113.89 28.6097 111.466 28.6097C109.108 28.6097 107.088 30.5032 107.088 33.2082C107.088 35.778 109.041 37.8068 111.668 37.8068C113.755 37.8068 114.968 36.5219 115.507 35.778L113.958 34.696C113.419 35.4399 112.745 35.9809 111.668 35.9809C110.657 35.9809 109.917 35.5075 109.445 34.5607L115.574 31.9909L115.439 31.5852ZM109.176 33.073C109.108 31.3147 110.523 30.3679 111.6 30.3679C112.408 30.3679 113.082 30.7737 113.284 31.3823L109.176 33.073ZM104.192 37.6039H106.212V24.0111H104.192V37.6039ZM100.892 29.624H100.824C100.353 29.083 99.4773 28.6097 98.3997 28.6097C96.1098 28.6097 93.9546 30.6384 93.9546 33.2758C93.9546 35.8456 96.0425 37.8744 98.3997 37.8744C99.4773 37.8744 100.353 37.401 100.824 36.7924H100.892V37.4686C100.892 39.2269 99.9488 40.1737 98.3997 40.1737C97.1874 40.1737 96.3792 39.2945 96.1098 38.5506L94.3587 39.2945C94.8975 40.5118 96.1772 41.9996 98.4671 41.9996C100.824 41.9996 102.845 40.5794 102.845 37.1981V28.8802H100.892V29.624ZM98.5344 36.0485C97.1201 36.0485 95.9751 34.8989 95.9751 33.2758C95.9751 31.6528 97.1201 30.4356 98.5344 30.4356C99.8814 30.4356 101.026 31.6528 101.026 33.2758C101.026 34.8989 99.9488 36.0485 98.5344 36.0485ZM124.936 24.0111H120.086V37.6039H122.107V32.4643H124.936C127.158 32.4643 129.381 30.8413 129.381 28.2715C129.381 25.7017 127.158 24.0111 124.936 24.0111ZM125.003 30.5708H122.107V25.9046H125.003C126.485 25.9046 127.36 27.1895 127.36 28.2039C127.36 29.2859 126.485 30.5708 125.003 30.5708ZM137.463 28.6097C135.981 28.6097 134.499 29.2859 133.826 30.7061L135.644 31.4499C136.048 30.7061 136.722 30.4356 137.463 30.4356C138.54 30.4356 139.551 31.0442 139.618 32.1938V32.3291C139.281 32.1262 138.473 31.7881 137.53 31.7881C135.577 31.7881 133.624 32.8701 133.624 34.8312C133.624 36.6571 135.24 37.8068 136.991 37.8068C138.338 37.8068 139.079 37.1981 139.551 36.4542H139.618V37.5363H141.571V32.3291C141.638 29.9622 139.82 28.6097 137.463 28.6097ZM137.261 36.0485C136.587 36.0485 135.644 35.7104 135.644 34.8989C135.644 33.8168 136.789 33.4787 137.799 33.4787C138.675 33.4787 139.079 33.6816 139.618 33.9521C139.483 35.1694 138.406 36.0485 137.261 36.0485ZM148.71 28.8802L146.42 34.7636H146.353L143.928 28.8802H141.773L145.41 37.1305L143.322 41.7291H145.41L151 28.8802H148.71ZM130.526 37.6039H132.546V24.0111H130.526V37.6039Z" fill="white"/>
<path d="M25.4933 12.7078C25.141 13.0617 25 13.6278 25 14.3355V39.4577C25 40.1654 25.2114 40.7316 25.4933 41.0854L25.5638 41.1562L39.589 27.0735V26.932V26.7197L25.5638 12.5663L25.4933 12.7078Z" fill="#5BC9F4"/>
<path d="M44.2404 31.7439L39.5889 27.0733V26.9318V26.7195L44.2404 22.0488L44.3109 22.1196L49.8787 25.3041C51.4292 26.2241 51.4292 27.7102 49.8787 28.5594L44.3814 31.6731L44.2404 31.7439Z" fill="url(#paint0_linear_667_1126)"/>
<path d="M44.3814 31.6732L39.5888 26.8611L25.4932 41.0145C25.9865 41.5806 26.9027 41.6514 27.8189 41.0853L44.3814 31.6732Z" fill="url(#paint1_linear_667_1126)"/>
<path d="M44.3814 22.0489L27.8189 12.6368C26.8323 12.0707 25.9865 12.1415 25.4932 12.7076L39.5888 26.861L44.3814 22.0489Z" fill="url(#paint2_linear_667_1126)"/>
<path d="M64.0607 13.4821C63.639 13.1292 63.0767 12.8469 62.4441 12.8469C61.0384 12.8469 59.9841 13.9761 59.9841 15.3876C59.9841 16.799 61.0384 17.9282 62.4441 17.9282C63.639 17.9282 64.4824 17.2225 64.5527 16.0933H62.655V15.3876H65.5367C65.5367 17.7165 64.2716 18.8457 62.3738 18.8457C60.4761 18.8457 59.0001 17.2931 59.0001 15.4581C59.0001 13.5526 60.4761 12 62.3738 12C63.2173 12 64.0607 12.3529 64.623 12.8469L64.0607 13.4821Z" fill="white"/>
<path d="M70.8088 12.0703V12.9172H67.786V15.0344H70.4573V15.8813H67.786V17.928H70.9494V18.7748H66.9425V12.0703H70.8088Z" fill="white"/>
<path d="M76.5722 12.0703V12.9172H74.5336V18.7748H73.6197V12.9172H71.5811V12.0703H76.5722Z" fill="white"/>
<path d="M80.9296 12.0703V18.7748H80.0157V12.0703H80.9296Z" fill="white"/>
<path d="M87.0449 12.0703V12.9172H85.0063V18.7748H84.0924V12.9172H82.0538V12.0703H87.0449Z" fill="white"/>
<path d="M93.3701 12C95.2679 12 96.7439 13.5526 96.7439 15.4581C96.7439 17.3636 95.2679 18.8457 93.3701 18.8457C91.4724 18.8457 89.9964 17.2931 89.9964 15.4581C89.9964 13.5526 91.4724 12 93.3701 12ZM93.3701 17.9988C94.7759 17.9988 95.8302 16.8696 95.8302 15.4581C95.8302 14.0466 94.7759 12.9175 93.3701 12.9175C91.9644 12.9175 90.9101 14.0466 90.9101 15.4581C90.9101 16.8696 91.9644 17.9988 93.3701 17.9988Z" fill="white"/>
<path d="M102.087 18.7748L99.0643 13.7641V18.7748H98.1505V12.0703H99.0643L102.087 17.0811V12.0703H103.001V18.7748H102.087Z" fill="white"/>
<defs>
<linearGradient id="paint0_linear_667_1126" x1="48.8797" y1="26.8509" x2="21.4738" y2="26.8509" gradientUnits="userSpaceOnUse">
<stop stop-color="#FEE000"/>
<stop offset="0.1941" stop-color="#FCCF0B"/>
<stop offset="0.5469" stop-color="#FAB318"/>
<stop offset="0.8279" stop-color="#F9A21B"/>
<stop offset="1" stop-color="#F99B1C"/>
</linearGradient>
<linearGradient id="paint1_linear_667_1126" x1="41.7675" y1="29.4606" x2="15.8857" y2="55.2369" gradientUnits="userSpaceOnUse">
<stop stop-color="#EF4547"/>
<stop offset="1" stop-color="#C6186D"/>
</linearGradient>
<linearGradient id="paint2_linear_667_1126" x1="15.8762" y1="-1.7571" x2="37.008" y2="19.2885" gradientUnits="userSpaceOnUse">
<stop stop-color="#279E6F"/>
<stop offset="0.3168" stop-color="#4DAB6D"/>
<stop offset="0.7398" stop-color="#6ABA6A"/>
<stop offset="1" stop-color="#74C169"/>
</linearGradient>
</defs>
</svg>
