<svg width="46" height="46" viewBox="0 0 46 46" fill="none" xmlns="http://www.w3.org/2000/svg">
<circle cx="23" cy="23" r="23" fill="white" fill-opacity="0.2"/>
<path d="M31.1497 22.3073H14.8484C14.4394 22.3073 14.1074 22.6175 14.1074 22.9996C14.1074 23.3818 14.4394 23.692 14.8484 23.692H31.1497C31.5587 23.692 31.8907 23.3818 31.8907 22.9996C31.8907 22.6175 31.5587 22.3073 31.1497 22.3073Z" fill="white" stroke="white" stroke-width="0.4"/>
<path d="M31.1497 27.6153H14.8484C14.4394 27.6153 14.1074 27.9255 14.1074 28.3076C14.1074 28.6898 14.4394 29 14.8484 29H31.1497C31.5587 29 31.8907 28.6898 31.8907 28.3076C31.8907 27.9255 31.5587 27.6153 31.1497 27.6153Z" fill="white" stroke="white" stroke-width="0.4"/>
<path d="M31.1497 17H14.8484C14.4394 17 14.1074 17.3101 14.1074 17.6923C14.1074 18.0744 14.4394 18.3846 14.8484 18.3846H31.1497C31.5587 18.3846 31.8907 18.0744 31.8907 17.6923C31.8907 17.3101 31.5587 17 31.1497 17Z" fill="white" stroke="white" stroke-width="0.4"/>
</svg>
