<svg width="70" height="70" viewBox="0 0 70 70" fill="none" xmlns="http://www.w3.org/2000/svg">
<rect width="70" height="70" rx="35" fill="#7C82FF"/>
<path d="M35.2374 34.442C34.125 34.442 33.2241 33.5412 33.2241 32.4288C33.2241 31.3164 34.1249 30.4155 35.2374 30.4155C35.7749 30.4155 36.2805 30.625 36.6608 31.0054C37.4477 31.7923 37.4479 33.0651 36.6608 33.8523C36.2805 34.2325 35.7749 34.442 35.2374 34.442Z" fill="#EAF0FD"/>
<path d="M41.0747 46.6818L38.2651 45.6091C36.3154 44.8647 34.1598 44.8647 32.21 45.6091L29.4004 46.6818L24.3614 51.7473C23.9005 52.2107 24.2287 53.0001 24.8823 53.0001H45.5929C46.2466 53.0001 46.5748 52.2107 46.1138 51.7472L41.0747 46.6818Z" fill="#FFBB00"/>
<path d="M35.2376 17C29.5724 17 24.6198 20.0534 21.9375 24.6048L20.2344 28.8175C19.956 29.9762 19.8091 31.1847 19.8091 32.4285C19.8091 40.9734 26.7397 47.8571 35.2376 47.8571C43.722 47.8571 50.6662 40.9859 50.6662 32.4285C50.6662 23.9076 43.7586 17 35.2376 17ZM36.2765 33.4675C35.7027 34.0412 34.7732 34.042 34.1988 33.4675C33.625 32.8937 33.6243 31.9642 34.1988 31.3898C34.7725 30.816 35.702 30.8153 36.2765 31.3898C36.8502 31.9634 36.8509 32.893 36.2765 33.4675Z" fill="#CE0050"/>
<path d="M43.9519 23.4805C46.2809 25.7492 47.7275 28.9201 47.7275 32.4283C41.9404 33.9194 42.3265 33.82 42.3099 33.8243L36.7071 32.4283C36.7071 32.0228 36.5426 31.6554 36.2766 31.3895L39.2923 26.4008L43.891 23.5437L43.9519 23.4805Z" fill="#FD7B4A"/>
<path d="M44.0664 41.2568L44.0693 41.2597C41.8087 43.5197 38.6862 44.9178 35.2375 44.9178C33.5673 37.8265 33.8813 39.1599 33.8416 38.9912L35.2375 33.8973C35.6431 33.8973 36.0104 33.7328 36.2764 33.4668L41.7122 36.8455L44.0664 41.2568Z" fill="#FD7B4A"/>
<path d="M36.413 25.6696L35.2375 30.9594C34.832 30.9594 34.4646 31.124 34.1987 31.3899L29.1489 27.7361C29.1124 27.6809 29.5184 28.2937 26.4065 23.5978C28.6664 21.3371 31.7881 19.939 35.2375 19.939C36.4933 26.0611 36.4093 25.652 36.413 25.6696Z" fill="#FD7B4A"/>
<path d="M34.1985 33.4672L31.7694 37.1452C31.6974 37.2005 32.4938 36.5895 26.4056 41.26C24.1456 38.9994 22.7476 35.8769 22.7476 32.4282C28.0881 31.0441 27.525 31.19 27.5667 31.1792L33.768 32.4282C33.7679 32.8338 33.9326 33.2012 34.1985 33.4672Z" fill="#FD7B4A"/>
<path d="M43.9516 23.4809C35.277 32.4196 36.4234 31.2382 36.2763 31.3899C36.0103 31.1239 35.643 30.9593 35.2374 30.9593C35.2374 29.5797 35.2374 21.3183 35.2374 19.939C38.6265 19.939 41.7013 21.2893 43.9516 23.4809Z" fill="#FFD400"/>
<path d="M47.7275 32.4277C47.7275 35.8764 46.3294 38.9989 44.0695 41.2595C43.0934 40.2834 37.2515 34.4415 36.2766 33.4667C36.5426 33.2007 36.7071 32.8333 36.7071 32.4278C38.0868 32.4277 46.3481 32.4277 47.7275 32.4277Z" fill="#FFD400"/>
<path d="M35.2374 44.9182C31.7888 44.9182 28.6663 43.52 26.4056 41.2602L34.1985 33.4673C34.4645 33.7333 34.8318 33.8978 35.2374 33.8978C35.2374 35.2775 35.2374 43.5388 35.2374 44.9182Z" fill="#FFD400"/>
<path d="M34.1985 31.3894C33.9325 31.6554 33.7679 32.0227 33.7679 32.4283C32.3883 32.4283 24.1269 32.4283 22.7476 32.4283C22.7476 31.1491 22.9401 29.9149 23.2971 28.7533L24.0964 26.7777C24.6966 25.597 25.4784 24.5243 26.4063 23.5972C27.3829 24.5739 33.2258 30.4168 34.1985 31.3894Z" fill="#FFD400"/>
<path d="M20.7302 24.1165L19.0271 28.331C18.9284 28.5755 19.1115 28.8412 19.3751 28.8357C20.8694 28.8046 23.4516 28.7508 25.1455 28.7154C25.4685 28.7086 25.6259 28.3184 25.3982 28.0892L21.3314 23.9953C21.1455 23.8082 20.8289 23.8721 20.7302 24.1165Z" fill="#FD435B"/>
</svg>
