<svg width="55" height="34" viewBox="0 0 55 34" fill="none" xmlns="http://www.w3.org/2000/svg">
<path opacity="0.07" d="M50.0838 0H4.75049C2.34215 0 0.500488 1.84167 0.500488 4.25V29.75C0.500488 32.1583 2.48382 34 4.75049 34H50.0838C52.4922 34 54.3338 32.1583 54.3338 29.75V4.25C54.3338 1.84167 52.3505 0 50.0838 0Z" fill="#434648"/>
<path d="M50.0841 1.41699C51.6425 1.41699 52.9175 2.69199 52.9175 4.25033V29.7503C52.9175 31.3087 51.6425 32.5837 50.0841 32.5837H4.75081C3.19248 32.5837 1.91748 31.3087 1.91748 29.7503V4.25033C1.91748 2.69199 3.19248 1.41699 4.75081 1.41699H50.0841Z" fill="white"/>
<path d="M21.7502 26.9163C27.227 26.9163 31.6668 22.4765 31.6668 16.9997C31.6668 11.5229 27.227 7.08301 21.7502 7.08301C16.2733 7.08301 11.8335 11.5229 11.8335 16.9997C11.8335 22.4765 16.2733 26.9163 21.7502 26.9163Z" fill="#EB001B"/>
<path d="M33.0841 26.9163C38.561 26.9163 43.0008 22.4765 43.0008 16.9997C43.0008 11.5229 38.561 7.08301 33.0841 7.08301C27.6073 7.08301 23.1675 11.5229 23.1675 16.9997C23.1675 22.4765 27.6073 26.9163 33.0841 26.9163Z" fill="#F79E1B"/>
<path d="M31.6676 16.9998C31.6676 13.5998 29.9676 10.6248 27.4176 8.9248C24.8676 10.7665 23.1676 13.7415 23.1676 16.9998C23.1676 20.2581 24.8676 23.3748 27.4176 25.0748C29.9676 23.3748 31.6676 20.3998 31.6676 16.9998Z" fill="#FF5F00"/>
</svg>
