<svg width="54" height="34" viewBox="0 0 54 34" fill="none" xmlns="http://www.w3.org/2000/svg">
<path opacity="0.07" d="M49.5833 0H4.25C1.84167 0 0 1.84167 0 4.25V29.75C0 32.1583 1.98333 34 4.25 34H49.5833C51.9917 34 53.8333 32.1583 53.8333 29.75V4.25C53.8333 1.84167 51.85 0 49.5833 0Z" fill="#434648"/>
<path d="M49.5841 1.41699C51.1425 1.41699 52.4175 2.69199 52.4175 4.25033V29.7503C52.4175 31.3087 51.1425 32.5837 49.5841 32.5837H4.25081C2.69248 32.5837 1.41748 31.3087 1.41748 29.7503V4.25033C1.41748 2.69199 2.69248 1.41699 4.25081 1.41699H49.5841Z" fill="white"/>
<path d="M33.8575 11.758C34.1409 10.3413 33.8575 9.34967 33.0075 8.49967C32.1575 7.50801 30.5992 7.08301 28.6159 7.08301H22.8075C22.3825 7.08301 22.0992 7.36634 21.9575 7.79134L19.8325 22.0997C19.8325 22.383 19.9742 22.6663 20.2575 22.6663H24.0825L24.6492 17.8497L27.1992 14.733L33.8575 11.758Z" fill="#003087"/>
<path d="M33.859 11.7588L33.5756 12.0421C32.8673 16.0088 30.459 17.4255 27.059 17.4255H25.5006C25.0756 17.4255 24.7923 17.7088 24.6506 18.1338L23.8006 23.6588L23.5173 25.0755C23.5173 25.3588 23.659 25.6421 23.9423 25.6421H26.9173C27.3423 25.6421 27.6256 25.3588 27.6256 25.0755V24.9338L28.1923 21.5338V21.3921C28.1923 21.1088 28.6173 20.8255 28.9006 20.8255H29.3256C32.3006 20.8255 34.5673 19.6921 35.134 16.2921C35.4173 14.8755 35.2756 13.7421 34.5673 12.8921C34.4256 12.1838 34.1423 11.9005 33.859 11.7588Z" fill="#3086C8"/>
<path d="M33.0083 11.4748C32.8667 11.3331 32.725 11.3331 32.5833 11.3331C32.4417 11.3331 32.3 11.3331 32.1583 11.1915C31.7333 11.0498 31.1667 11.0498 30.6 11.0498H26.35C26.2083 11.0498 26.0667 11.0498 26.0667 11.1915C25.7833 11.3331 25.6417 11.4748 25.6417 11.7581L24.65 17.9915V18.1331C24.65 17.7081 25.075 17.4248 25.5 17.4248H27.3417C30.8833 17.4248 33.15 16.0081 33.8583 12.0415V11.7581C33.7167 11.6165 33.4333 11.4748 33.15 11.4748H33.0083Z" fill="#012169"/>
</svg>
