<svg width="111" height="27" viewBox="0 0 111 27" fill="none" xmlns="http://www.w3.org/2000/svg">
<path d="M20.3145 2.03595C19.0108 0.610966 16.6542 4.19617e-05 13.6395 4.19617e-05H4.88995C4.59152 -0.000110626 4.30283 0.101889 4.07583 0.287678C3.84883 0.473469 3.69843 0.730852 3.65169 1.01351L0.0101208 23.1732C-0.00676459 23.276 -0.000210762 23.3811 0.0293312 23.4812C0.0588731 23.5814 0.110701 23.6742 0.181243 23.7532C0.251786 23.8323 0.339366 23.8958 0.437951 23.9393C0.536535 23.9828 0.643781 24.0053 0.752298 24.0052H6.15391L7.51054 15.7533L7.46849 16.0117C7.51433 15.7296 7.66373 15.4725 7.88976 15.2867C8.11579 15.1008 8.40359 14.9986 8.7013 14.9982H11.2682C16.3107 14.9982 20.2592 13.034 21.4125 7.352C21.4468 7.18396 21.4764 7.0204 21.5021 6.86058C21.8448 4.76044 21.4998 3.33098 20.3152 2.0367" fill="#003087"/>
<path d="M86.4419 12.5805C86.1117 14.6598 84.456 14.6598 82.8548 14.6598H81.9437L82.583 10.7777C82.622 10.5431 82.8322 10.3706 83.0799 10.3706H83.4981C84.5884 10.3706 85.6179 10.3706 86.1491 10.9659C86.466 11.3221 86.5618 11.8509 86.4419 12.5805ZM85.7449 7.15545H79.7047C79.5046 7.15555 79.3111 7.22402 79.159 7.34858C79.0068 7.47314 78.906 7.64563 78.8745 7.83508L76.4338 22.6876C76.4226 22.7565 76.427 22.8268 76.4468 22.8939C76.4666 22.961 76.5013 23.0231 76.5485 23.0761C76.5957 23.1291 76.6542 23.1717 76.7202 23.2009C76.7862 23.2302 76.858 23.2454 76.9306 23.2455H80.0302C80.3191 23.2455 80.5652 23.0439 80.6104 22.7705L81.3035 18.5583C81.3674 18.1677 81.7194 17.8787 82.1321 17.8787H84.0432C88.0228 17.8787 90.3186 16.0332 90.9183 12.3729C91.1885 10.7732 90.9292 9.51548 90.1481 8.63495C89.2891 7.66704 87.7666 7.1547 85.7456 7.1547" fill="#009CDE"/>
<path d="M43.36 12.5807C43.0298 14.6599 41.3741 14.6599 39.7721 14.6599H38.861L39.5004 10.7778C39.5393 10.5433 39.7496 10.3707 39.9972 10.3707H40.4154C41.5057 10.3707 42.5353 10.3707 43.0664 10.966C43.3841 11.3222 43.4799 11.851 43.36 12.5807ZM42.663 7.15557H36.6228C36.21 7.15557 35.858 7.44385 35.7934 7.8352L33.3519 22.6877C33.3405 22.7566 33.3449 22.827 33.3646 22.8942C33.3843 22.9613 33.419 23.0235 33.4662 23.0765C33.5135 23.1295 33.5721 23.1721 33.6382 23.2013C33.7042 23.2305 33.776 23.2456 33.8488 23.2456H36.7333C37.1461 23.2456 37.4973 22.9574 37.562 22.566L38.2216 18.5592C38.2855 18.1678 38.6375 17.8795 39.0502 17.8795H40.9613C44.9409 17.8795 47.2367 16.0333 47.8364 12.373C48.1066 10.7733 47.8473 9.51561 47.0662 8.63507C46.2072 7.66716 44.6847 7.15483 42.6638 7.15483L42.663 7.15557ZM56.6865 17.9132C56.4061 19.498 55.0954 20.5622 53.4218 20.5622C52.5831 20.5622 51.911 20.3031 51.4795 19.8131C51.0512 19.3277 50.8908 18.6354 51.0263 17.8654C51.2864 16.294 52.6197 15.1961 54.2676 15.1961C55.0892 15.1961 55.755 15.4575 56.1958 15.9519C56.6389 16.4501 56.8134 17.1461 56.6865 17.9132ZM60.7174 12.5134H57.825C57.7048 12.5133 57.5885 12.5544 57.4971 12.6293C57.4056 12.7043 57.3452 12.808 57.3266 12.922L57.2004 13.6972L56.998 13.4164C56.3718 12.5448 54.9755 12.2528 53.5815 12.2528C50.3861 12.2528 47.6565 14.5755 47.1254 17.8317C46.8489 19.4576 47.2414 21.0103 48.2024 22.094C49.0848 23.0895 50.3441 23.504 51.8448 23.504C54.421 23.504 55.8493 21.9177 55.8493 21.9177L55.72 22.6885C55.7086 22.7574 55.713 22.8279 55.7327 22.8951C55.7525 22.9622 55.7873 23.0245 55.8346 23.0775C55.8819 23.1306 55.9407 23.1731 56.0068 23.2023C56.0729 23.2314 56.1448 23.2465 56.2176 23.2464H58.8219C59.2346 23.2464 59.5866 22.9588 59.6513 22.5668L61.2151 13.0721C61.2263 13.0031 61.2218 12.9326 61.202 12.8654C61.1821 12.7983 61.1472 12.736 61.0999 12.683C61.0525 12.63 60.9937 12.5874 60.9276 12.5583C60.8614 12.5292 60.7894 12.5141 60.7166 12.5142" fill="#003087"/>
<path d="M99.7696 17.9131C99.4893 19.498 98.1786 20.5622 96.505 20.5622C95.6663 20.5622 94.9942 20.3031 94.5627 19.8131C94.1344 19.3277 93.974 18.6353 94.1095 17.8654C94.3696 16.294 95.7021 15.1961 97.3508 15.1961C98.1724 15.1961 98.8382 15.4575 99.279 15.9519C99.7221 16.4501 99.8966 17.1461 99.7696 17.9131ZM103.801 12.5134H100.908C100.788 12.5133 100.672 12.5544 100.58 12.6293C100.489 12.7043 100.428 12.808 100.41 12.922L100.284 13.6972L100.081 13.4164C99.455 12.5448 98.0587 12.2528 96.6647 12.2528C93.4701 12.2528 90.7405 14.5755 90.2086 17.8317C89.9321 19.4576 90.3254 21.0103 91.2864 22.094C92.1688 23.0895 93.4281 23.504 94.9288 23.504C97.5057 23.504 98.934 21.9177 98.934 21.9177L98.8047 22.6885C98.7931 22.7573 98.7972 22.8278 98.8168 22.895C98.8364 22.9621 98.871 23.0244 98.9182 23.0775C98.9654 23.1306 99.0241 23.1732 99.0901 23.2023C99.1562 23.2315 99.2281 23.2465 99.3008 23.2464H101.904C102.317 23.2464 102.669 22.9588 102.734 22.5668L104.298 13.0721C104.31 13.0031 104.305 12.9326 104.285 12.8654C104.265 12.7983 104.23 12.736 104.183 12.683C104.136 12.63 104.077 12.5874 104.011 12.5583C103.945 12.5292 103.873 12.5141 103.8 12.5142" fill="#009CDE"/>
<path d="M76.1228 12.5142H73.2149C72.9368 12.5142 72.6775 12.6464 72.5217 12.8674L68.511 18.5315L66.811 13.0885C66.7591 12.9225 66.6528 12.7769 66.5079 12.6733C66.363 12.5697 66.1872 12.5137 66.0065 12.5134H63.1491C63.069 12.5135 62.99 12.5318 62.9188 12.567C62.8476 12.6021 62.7861 12.6531 62.7395 12.7156C62.6929 12.7781 62.6625 12.8504 62.6509 12.9264C62.6392 13.0024 62.6466 13.08 62.6725 13.1527L65.8733 22.1642L62.8625 26.2382C62.8093 26.3105 62.7779 26.3955 62.7716 26.4838C62.7653 26.5721 62.7844 26.6603 62.8268 26.7389C62.8692 26.8175 62.9333 26.8834 63.0121 26.9295C63.091 26.9755 63.1815 26.9999 63.2737 27H66.1786C66.4527 27 66.7105 26.8708 66.8678 26.6542L76.5356 13.2722C76.5881 13.1999 76.6189 13.1151 76.6247 13.0272C76.6305 12.9392 76.6111 12.8514 76.5686 12.7733C76.526 12.6952 76.462 12.6297 76.3834 12.5841C76.3048 12.5384 76.2147 12.5142 76.1228 12.5142Z" fill="#003087"/>
<path d="M107.209 7.56396L104.73 22.6884C104.718 22.7573 104.723 22.8277 104.743 22.8948C104.763 22.9619 104.797 23.0241 104.845 23.0771C104.892 23.1301 104.951 23.1727 105.017 23.2019C105.083 23.2311 105.155 23.2462 105.227 23.2462H107.72C108.133 23.2462 108.485 22.958 108.55 22.5666L110.994 7.71333C111.006 7.64439 111.001 7.5739 110.981 7.50674C110.962 7.43957 110.927 7.37732 110.88 7.32428C110.832 7.27124 110.774 7.22868 110.707 7.19953C110.641 7.17038 110.569 7.15533 110.497 7.15544H107.707C107.587 7.15514 107.471 7.19611 107.379 7.27092C107.288 7.34573 107.228 7.44942 107.209 7.56321" fill="#009CDE"/>
<path d="M20.3145 2.03595C19.0108 0.610966 16.6542 4.19617e-05 13.6395 4.19617e-05H4.88995C4.59152 -0.000110626 4.30283 0.101889 4.07583 0.287678C3.84883 0.473469 3.69843 0.730852 3.65169 1.01351L0.0101208 23.1732C-0.00676459 23.276 -0.000210762 23.3811 0.0293312 23.4812C0.0588731 23.5814 0.110701 23.6742 0.181243 23.7532C0.251786 23.8323 0.339366 23.8958 0.437951 23.9393C0.536535 23.9828 0.643781 24.0053 0.752298 24.0052H6.15391L7.51054 15.7533L7.46849 16.0117C7.51433 15.7296 7.66373 15.4725 7.88976 15.2867C8.11579 15.1008 8.40359 14.9986 8.7013 14.9982H11.2682C16.3107 14.9982 20.2592 13.034 21.4125 7.352C21.4468 7.18396 21.4764 7.0204 21.5021 6.86058C21.8448 4.76044 21.4998 3.33098 20.3152 2.0367" fill="#003087"/>
<path d="M8.96756 6.88821C9.0085 6.64123 9.13988 6.41632 9.33812 6.25385C9.53637 6.09137 9.78851 6.00198 10.0493 6.0017H16.9088C17.721 6.0017 18.4788 6.05249 19.1711 6.15854C19.5497 6.21694 19.9242 6.29725 20.2926 6.39903C20.711 6.51183 21.1158 6.66653 21.5005 6.86058C21.8447 4.7597 21.4989 3.33098 20.3144 2.03595C19.0099 0.611713 16.6541 0.000789642 13.6395 0.000789642H4.8891C4.59094 0.000993729 4.30262 0.103151 4.07594 0.28891C3.84927 0.474669 3.69909 0.731853 3.6524 1.01426L0.00926734 23.1717C-0.00773238 23.2745 -0.00129053 23.3796 0.0281494 23.4798C0.0575894 23.58 0.109327 23.6728 0.179798 23.752C0.250268 23.8311 0.337796 23.8947 0.436349 23.9383C0.534902 23.9819 0.642137 24.0044 0.750665 24.0044H6.15306L7.50969 15.7518L8.96756 6.88821Z" fill="#003087"/>
<path d="M21.5016 6.85979C21.4748 7.0241 21.445 7.18794 21.412 7.35121C20.2586 13.0325 16.3102 14.9974 11.2676 14.9974H8.69999C8.40233 14.9976 8.11455 15.0999 7.88862 15.2857C7.66269 15.4716 7.51349 15.7288 7.46797 16.0109L6.15339 24.0037L5.77957 26.2711C5.76471 26.3611 5.77038 26.4531 5.79619 26.5408C5.822 26.6286 5.86733 26.7099 5.92907 26.7792C5.99081 26.8484 6.06748 26.9041 6.1538 26.9422C6.24012 26.9803 6.33404 27 6.42907 27H10.9826C11.5215 27 11.9794 26.6236 12.0643 26.1135L12.1087 25.8909L12.9669 20.675L13.0214 20.3867C13.0622 20.1395 13.1937 19.9144 13.3921 19.7519C13.5906 19.5894 13.843 19.5001 14.1039 19.5002H14.7854C19.1964 19.5002 22.6503 17.7824 23.6596 12.8114C24.0801 10.7352 23.862 9.00025 22.7484 7.78214C22.3948 7.40449 21.9722 7.09191 21.5016 6.85979Z" fill="#009CDE"/>
<path d="M20.2945 6.39907C20.1185 6.34903 19.937 6.30422 19.7501 6.26464C19.5632 6.22505 19.3701 6.18995 19.1722 6.16008C18.4791 6.05179 17.7222 6.001 16.9091 6.001H10.0504C9.78934 6.00069 9.53677 6.08998 9.33838 6.25271C9.13998 6.41544 9.00884 6.64087 8.96868 6.88825L7.5108 15.7533L7.46875 16.011C7.51427 15.7289 7.66347 15.4717 7.8894 15.2858C8.11534 15.1 8.40311 14.9977 8.70078 14.9975H11.2684C16.311 14.9975 20.2594 13.0333 21.4128 7.3513C21.4471 7.18326 21.4759 7.02045 21.5024 6.85988C21.1978 6.70703 20.8805 6.57863 20.5538 6.476C20.4689 6.44911 20.3825 6.42372 20.2945 6.39832" fill="#012169"/>
</svg>
