<svg width="36" height="36" viewBox="0 0 36 36" fill="none" xmlns="http://www.w3.org/2000/svg">
<g opacity="0.8">
<circle opacity="0.3" cx="18" cy="18" r="17.25" stroke="#434648" stroke-width="1.5"/>
<path d="M25.8026 22.9538C25.8026 23.2356 25.74 23.5251 25.607 23.8069C25.4739 24.0886 25.3018 24.3547 25.0748 24.6051C24.6913 25.0277 24.2687 25.333 23.7913 25.5286C23.3218 25.7243 22.8131 25.826 22.2653 25.826C21.467 25.826 20.6139 25.6382 19.7139 25.2547C18.8139 24.8712 17.914 24.3547 17.0218 23.7051C16.1218 23.0477 15.2687 22.3199 14.4548 21.5138C13.6487 20.6999 12.9209 19.8469 12.2713 18.9547C11.6296 18.0625 11.1131 17.1704 10.7374 16.286C10.3618 15.3938 10.174 14.5408 10.174 13.7269C10.174 13.1947 10.2679 12.686 10.4557 12.2164C10.6435 11.739 10.9409 11.3008 11.3557 10.9095C11.8566 10.4164 12.4044 10.1738 12.9835 10.1738C13.2026 10.1738 13.4218 10.2208 13.6174 10.3147C13.8209 10.4086 14.0009 10.5495 14.1418 10.753L15.9574 13.3121C16.0983 13.5077 16.2 13.6877 16.2705 13.8599C16.3409 14.0243 16.38 14.1886 16.38 14.3373C16.38 14.5251 16.3253 14.713 16.2157 14.893C16.114 15.073 15.9653 15.2608 15.7774 15.4486L15.1826 16.0669C15.0966 16.153 15.0574 16.2547 15.0574 16.3799C15.0574 16.4425 15.0653 16.4973 15.0809 16.5599C15.1044 16.6225 15.1279 16.6695 15.1435 16.7164C15.2844 16.9747 15.527 17.3112 15.8713 17.7182C16.2235 18.1251 16.5992 18.5399 17.0061 18.9547C17.4287 19.3695 17.8357 19.753 18.2505 20.1051C18.6574 20.4495 18.9939 20.6843 19.26 20.8251C19.2992 20.8408 19.3461 20.8643 19.4009 20.8877C19.4635 20.9112 19.5261 20.919 19.5966 20.919C19.7296 20.919 19.8313 20.8721 19.9174 20.786L20.5122 20.199C20.7079 20.0034 20.8957 19.8547 21.0757 19.7608C21.2557 19.6512 21.4357 19.5964 21.6313 19.5964C21.78 19.5964 21.9366 19.6277 22.1087 19.6982C22.2809 19.7686 22.4609 19.8704 22.6566 20.0034L25.247 21.8425C25.4505 21.9834 25.5913 22.1477 25.6774 22.3434C25.7557 22.539 25.8026 22.7347 25.8026 22.9538Z" stroke="#434648" stroke-width="1.5" stroke-miterlimit="10"/>
<path d="M23.087 15.6522C23.087 15.1827 22.7192 14.4627 22.1714 13.8757C21.6705 13.3357 21.0053 12.9131 20.3479 12.9131" stroke="#434648" stroke-width="1.5" stroke-linecap="round" stroke-linejoin="round"/>
<path d="M25.8262 15.6521C25.8262 12.6234 23.3766 10.1738 20.3479 10.1738" stroke="#434648" stroke-width="1.5" stroke-linecap="round" stroke-linejoin="round"/>
</g>
</svg>
