<svg width="27" height="30" viewBox="0 0 27 30" fill="none" xmlns="http://www.w3.org/2000/svg">
<path d="M0.493349 0.707819C0.140957 1.06165 0 1.62779 0 2.33546V27.4578C0 28.1654 0.211436 28.7316 0.493349 29.0854L0.563826 29.1562L14.589 15.0735V14.932V14.7197L0.563826 0.566284L0.493349 0.707819Z" fill="#5BC9F4"/>
<path d="M19.2404 19.7439L14.5889 15.0733V14.9318V14.7195L19.2404 10.0488L19.3109 10.1196L24.8787 13.3041C26.4292 14.2241 26.4292 15.7102 24.8787 16.5594L19.3814 19.6731L19.2404 19.7439Z" fill="url(#paint0_linear_667_187)"/>
<path d="M19.3814 19.6732L14.5888 14.8611L0.493164 29.0145C0.986512 29.5806 1.90273 29.6514 2.81895 29.0853L19.3814 19.6732Z" fill="url(#paint1_linear_667_187)"/>
<path d="M19.3814 10.0489L2.81895 0.636844C1.83225 0.0707083 0.986512 0.141476 0.493164 0.707612L14.5888 14.861L19.3814 10.0489Z" fill="url(#paint2_linear_667_187)"/>
<defs>
<linearGradient id="paint0_linear_667_187" x1="23.8797" y1="14.8509" x2="-3.52618" y2="14.8509" gradientUnits="userSpaceOnUse">
<stop stop-color="#FEE000"/>
<stop offset="0.1941" stop-color="#FCCF0B"/>
<stop offset="0.5469" stop-color="#FAB318"/>
<stop offset="0.8279" stop-color="#F9A21B"/>
<stop offset="1" stop-color="#F99B1C"/>
</linearGradient>
<linearGradient id="paint1_linear_667_187" x1="16.7675" y1="17.4606" x2="-9.1143" y2="43.2369" gradientUnits="userSpaceOnUse">
<stop stop-color="#EF4547"/>
<stop offset="1" stop-color="#C6186D"/>
</linearGradient>
<linearGradient id="paint2_linear_667_187" x1="-9.12382" y1="-13.7571" x2="12.008" y2="7.28855" gradientUnits="userSpaceOnUse">
<stop stop-color="#279E6F"/>
<stop offset="0.3168" stop-color="#4DAB6D"/>
<stop offset="0.7398" stop-color="#6ABA6A"/>
<stop offset="1" stop-color="#74C169"/>
</linearGradient>
</defs>
</svg>
