<svg width="62" height="60" viewBox="0 0 62 60" fill="none" xmlns="http://www.w3.org/2000/svg">
<path d="M22.885 31.1309H17.4011C15.0972 31.1309 12.8176 30.3638 10.9821 28.971L3.80126 23.5223C0.461092 20.9878 -0.843654 16.6291 0.55467 12.6761C1.89112 8.8981 5.48172 6.32769 9.48928 6.27995C13.4052 6.23348 15.63 6.35723 15.7227 6.36258L15.4775 10.6726C15.4561 10.6715 13.2915 10.5525 9.54059 10.5968C7.33545 10.623 5.35975 12.0372 4.62449 14.1159C3.85511 16.2908 4.57293 18.6889 6.41075 20.0834L13.5914 25.5322C14.6806 26.3588 16.0336 26.8139 17.4009 26.8139H22.8847V31.1309H22.885Z" fill="#FFA300"/>
<path d="M10.9822 26.6964L3.80137 21.2477C1.6725 19.6323 0.372212 17.2755 0.0698338 14.7554C-0.328414 18.0843 1.03986 21.4267 3.80137 23.522L10.9822 28.9708C12.8176 30.3636 15.0973 31.1306 17.4013 31.1306H22.8851V28.8563H17.4013C15.0973 28.8563 12.8176 28.0892 10.9822 26.6964Z" fill="#CC8300"/>
<path d="M38.438 31.1309H43.9218C46.2257 31.1309 48.5053 30.3638 50.3409 28.971L57.5217 23.5223C60.8619 20.9878 62.1666 16.6291 60.7683 12.6761C59.4318 8.8981 55.8412 6.32769 51.8337 6.27995C47.9178 6.23348 45.6929 6.35723 45.6002 6.36258L45.8454 10.6726C45.8668 10.6715 48.0315 10.5525 51.7824 10.5968C53.9875 10.623 55.9632 12.0372 56.6985 14.1159C57.4678 16.2908 56.75 18.6889 54.9122 20.0834L47.7315 25.5322C46.6423 26.3588 45.2893 26.8139 43.922 26.8139H38.4382V31.1309H38.438Z" fill="#FFA300"/>
<path d="M60.768 12.676C60.1425 10.9075 59.0229 9.40379 57.5978 8.29932C58.2126 9.09174 58.7097 9.98652 59.055 10.963C60.4533 14.916 59.1486 19.2747 55.8084 21.8092L48.6276 27.258C46.7922 28.6507 44.5124 29.4178 42.2085 29.4178H38.4376V31.1307H43.9214C46.2254 31.1307 48.505 30.3636 50.3405 28.9709L57.5213 23.5221C60.8616 20.9876 62.1664 16.6289 60.768 12.676Z" fill="#CC8300"/>
<path d="M37.6527 46.9423L35.099 45.0069C34.0015 44.1751 33.3568 42.8773 33.3568 41.5003V32.9092H27.5729V41.5003C27.5729 42.8773 26.9282 44.1751 25.8307 45.0069L23.277 46.9423C22.481 47.5456 22.9076 48.8148 23.9063 48.8148H37.0233C38.0221 48.8147 38.4487 47.5456 37.6527 46.9423Z" fill="#FFA300"/>
<path d="M37.6529 46.9423L35.0991 45.0069C34.0017 44.1751 33.3569 42.8773 33.3569 41.5003V32.9092H30.3591V41.5003C30.3591 42.8773 31.0039 44.1751 32.1013 45.0069L34.6551 46.9423C35.4511 47.5456 35.0244 48.8148 34.0257 48.8148H37.0235C38.0222 48.8147 38.4489 47.5456 37.6529 46.9423Z" fill="#CC8300"/>
<path d="M46.8824 0H14.4403C13.8187 0 13.3149 0.503794 13.3149 1.12536V12.7424C13.3149 17.7163 14.6999 22.5919 17.3147 26.823L20.3105 31.6705C25.0057 39.2679 36.0368 39.3199 40.8034 31.7669L43.8745 26.9003C46.5746 22.6216 48.0077 17.6656 48.0077 12.6062V1.12536C48.0077 0.503921 47.5039 0 46.8824 0Z" fill="#FFC839"/>
<path d="M46.8826 0H41.6825V6.28081C41.6825 11.3403 40.2495 16.2963 37.5493 20.5751L34.4782 25.4417C31.0779 30.8297 24.49 32.3464 19.288 30.0158L20.3107 31.6707C25.0059 39.268 36.037 39.32 40.8035 31.767L43.8747 26.9005C46.5748 22.6217 48.0079 17.6658 48.0079 12.6063V1.12536C48.0079 0.503921 47.5041 0 46.8826 0Z" fill="#FFA300"/>
<path d="M30.3592 23.7667C34.4134 23.7667 37.7 20.4801 37.7 16.4258C37.7 12.3716 34.4134 9.08496 30.3592 9.08496C26.3049 9.08496 23.0183 12.3716 23.0183 16.4258C23.0183 20.4801 26.3049 23.7667 30.3592 23.7667Z" fill="#CC8300"/>
<path d="M33.0923 9.61279C33.4316 10.4578 33.6201 11.3796 33.6201 12.3459C33.6201 16.4002 30.3335 19.6868 26.2793 19.6868C25.3129 19.6868 24.3911 19.4982 23.5461 19.1589C24.6304 21.8592 27.2712 23.7668 30.3591 23.7668C34.4134 23.7668 37.7 20.4802 37.7 16.4259C37.7001 13.3378 35.7925 10.6972 33.0923 9.61279Z" fill="#FFA300"/>
<path d="M30.8951 13.1608L31.6637 14.718C31.7336 14.8595 31.8686 14.9577 32.0248 14.9803L33.7433 15.23C34.1366 15.2871 34.2936 15.7704 34.009 16.0479L32.7655 17.2601C32.6525 17.3702 32.6009 17.5289 32.6277 17.6844L32.9213 19.3961C32.9885 19.7877 32.5774 20.0864 32.2256 19.9015L30.6885 19.0934C30.5488 19.02 30.3819 19.02 30.2422 19.0934L28.7051 19.9015C28.3534 20.0864 27.9423 19.7877 28.0095 19.3961L28.3031 17.6844C28.3298 17.5288 28.2782 17.3702 28.1652 17.2601L26.9217 16.0479C26.6371 15.7704 26.7941 15.2871 27.1874 15.23L28.9059 14.9803C29.0621 14.9577 29.1971 14.8595 29.267 14.718L30.0356 13.1608C30.2111 12.8045 30.7193 12.8045 30.8951 13.1608Z" fill="#FFC839"/>
<path d="M34.0088 16.0481C34.2933 15.7707 34.1363 15.2874 33.743 15.2302L33.1165 15.1392L31.4465 16.767C31.2791 16.9301 31.2028 17.1652 31.2423 17.3955L31.6174 19.582L32.2253 19.9016C32.5771 20.0865 32.9882 19.7878 32.921 19.3961L32.6274 17.6845C32.6006 17.5289 32.6522 17.3703 32.7652 17.2601L34.0088 16.0481Z" fill="#FFA300"/>
<path d="M40.1858 60.0005H21.1369C20.5351 60.0005 20.0474 59.5126 20.0474 58.9109V49.905C20.0474 49.3032 20.5352 48.8154 21.1369 48.8154H40.1858C40.7876 48.8154 41.2753 49.3033 41.2753 49.905V58.9109C41.2755 59.5126 40.7876 60.0005 40.1858 60.0005Z" fill="#407093"/>
<path d="M40.1887 48.8145H38.125V55.7625C38.125 56.3627 37.6385 56.8492 37.0383 56.8492H20.0474V58.9129C20.0474 59.513 20.5338 59.9995 21.134 59.9995H40.1887C40.7889 59.9995 41.2753 59.513 41.2753 58.9129V49.9011C41.2755 49.3009 40.7889 48.8145 40.1887 48.8145Z" fill="#365E7D"/>
</svg>
