<svg width="60" height="58" viewBox="0 0 60 58" fill="none" xmlns="http://www.w3.org/2000/svg">
<path d="M30.6701 43.2502L30.2639 42.8916H21.8754L23.6693 43.5405L17.8495 52.0666H15.8777L15.0847 52.6613L15.3243 52.7909H35.8172L36.2744 52.4069L30.6701 43.2502Z" fill="#ED5469"/>
<path d="M23.9614 43.2502L24.5598 42.8916H20.8173L20.219 43.2502L14.6149 52.4069L15.3243 52.7909H19.0667L18.3573 52.4069L23.9614 43.2502Z" fill="#E63850"/>
<path d="M45.0946 20.5552H5.79467L4.13623 21.4007L4.88928 27.4057L8.17135 32.9921L15.3674 40.5373L23.6693 43.5403L23.5279 43.7474C24.1602 43.799 24.7991 43.8267 25.4445 43.8267C37.6877 43.8267 47.7225 34.3722 48.6466 22.366L45.0946 20.5552Z" fill="#FFE559"/>
<path d="M5.98505 22.3661L9.53712 20.5552H5.79462L2.24255 22.3661C3.16658 34.3724 13.2013 43.8269 25.4445 43.8269C26.0745 43.8269 26.6983 43.8005 27.3158 43.7513C15.9356 42.8456 6.8615 33.7545 5.98505 22.3661Z" fill="#FFD500"/>
<path d="M25.4446 40.205C36.297 40.205 45.0945 31.4075 45.0945 20.5552C45.0945 9.70283 36.297 0.905273 25.4446 0.905273C14.5923 0.905273 5.79474 9.70283 5.79474 20.5552C5.79474 31.4075 14.5923 40.205 25.4446 40.205Z" fill="#B5DCFF"/>
<path d="M11.3276 20.5553C11.3276 10.6593 18.6814 2.4498 28.2111 1.10098C27.3068 0.973008 26.3835 0.905273 25.4446 0.905273C14.6096 0.905273 5.79474 9.72023 5.79474 20.5552C5.79474 31.3902 14.6096 40.205 25.4446 40.205C26.3835 40.205 27.3068 40.1373 28.2111 40.0093C18.6814 38.6607 11.3276 30.4514 11.3276 20.5553Z" fill="#8BCAFF"/>
<path d="M18.8723 32.2432H18.3762L17.4284 33.6056V35.4852L18.0388 36.5293L18.7798 36.9125C19.6274 36.4659 20.2056 35.5768 20.2056 34.5522C20.2056 33.5653 19.6691 32.7043 18.8723 32.2432Z" fill="#F27182"/>
<path d="M17.5389 34.5525C17.5389 33.5656 18.0754 32.7045 18.8723 32.2434C18.4799 32.0164 18.0248 31.8857 17.5389 31.8857C16.0661 31.8857 14.8722 33.0796 14.8722 34.5525C14.8722 36.0253 16.0661 37.2192 17.5389 37.2192C18.0248 37.2192 18.4799 37.0886 18.8723 36.8615C18.0755 36.4003 17.5389 35.5393 17.5389 34.5525Z" fill="#ED5469"/>
<path d="M22.9082 21.7212H22.4122L21.4644 23.0836V24.9632L22.0748 26.0073L22.8158 26.3905C23.6634 25.9439 24.2416 25.0548 24.2416 24.0303C24.2416 23.0434 23.7051 22.1823 22.9082 21.7212Z" fill="#F27182"/>
<path d="M21.575 24.0305C21.575 23.0437 22.1115 22.1826 22.9083 21.7214C22.516 21.4944 22.0608 21.3638 21.575 21.3638C20.1022 21.3638 18.9083 22.5577 18.9083 24.0305C18.9083 25.5033 20.1022 26.6972 21.575 26.6972C22.0608 26.6972 22.516 26.5667 22.9083 26.3396C22.1115 25.8784 21.575 25.0173 21.575 24.0305Z" fill="#ED5469"/>
<path d="M35.8424 24.6816H35.3463L34.3985 26.0441V27.9236L35.0089 28.9678L35.7499 29.351C36.5975 28.9044 37.1757 28.0153 37.1757 26.9907C37.1757 26.0039 36.6392 25.1428 35.8424 24.6816Z" fill="#F27182"/>
<path d="M34.5091 26.9909C34.5091 26.0041 35.0456 25.143 35.8425 24.6819C35.4501 24.4549 34.995 24.3242 34.5091 24.3242C33.0363 24.3242 31.8424 25.5181 31.8424 26.9909C31.8424 28.4637 33.0363 29.6577 34.5091 29.6577C34.995 29.6577 35.4501 29.5271 35.8425 29.3C35.0456 28.8388 34.5091 27.9778 34.5091 26.9909Z" fill="#ED5469"/>
<path d="M26.3225 10.1362H25.8264L24.8786 11.4987V13.3782L25.489 14.4224L26.23 14.8056C27.0776 14.359 27.6558 13.4699 27.6558 12.4453C27.6557 11.4583 27.1192 10.5974 26.3225 10.1362Z" fill="#F27182"/>
<path d="M24.9891 12.445C24.9891 11.4582 25.5256 10.5971 26.3225 10.136C25.9301 9.90898 25.475 9.77832 24.9891 9.77832C23.5163 9.77832 22.3224 10.9722 22.3224 12.445C22.3224 13.9179 23.5163 15.1118 24.9891 15.1118C25.475 15.1118 25.9301 14.9812 26.3225 14.7541C25.5256 14.293 24.9891 13.432 24.9891 12.445Z" fill="#ED5469"/>
<path d="M18.2694 4.51904H17.7733L16.8255 5.88146V7.76104L17.4359 8.80518L18.1769 9.18838C19.0245 8.74178 19.6027 7.85268 19.6027 6.82811C19.6027 5.84115 19.0661 4.98018 18.2694 4.51904Z" fill="#F27182"/>
<path d="M16.936 6.82834C16.936 5.8415 17.4725 4.98041 18.2694 4.51928C17.877 4.29228 17.4219 4.16162 16.936 4.16162C15.4632 4.16162 14.2693 5.35553 14.2693 6.82834C14.2693 8.30115 15.4632 9.49506 16.936 9.49506C17.4219 9.49506 17.877 9.36451 18.2694 9.1374C17.4725 8.67615 16.936 7.81518 16.936 6.82834Z" fill="#ED5469"/>
<path d="M38.432 52.4067H15.4239L14.9118 52.7908V56.6942L15.6814 57.2834H38.432C39.0558 57.2834 39.5616 56.7777 39.5616 56.1538V53.5362C39.5616 52.9125 39.0559 52.4067 38.432 52.4067Z" fill="#F27182"/>
<path d="M15.07 56.1539V53.5363C15.07 52.9125 15.5757 52.4067 16.1996 52.4067H12.4571C11.8333 52.4067 11.3275 52.9125 11.3275 53.5363V56.1539C11.3275 56.7777 11.8332 57.2835 12.4571 57.2835H16.1996C15.5758 57.2835 15.07 56.7777 15.07 56.1539Z" fill="#ED5469"/>
<path d="M5.79464 20.555C5.79464 19.9445 5.82417 19.3407 5.8789 18.7441H1.81085C0.781714 18.7441 -0.0469189 19.6027 0.00206551 20.6426C0.0478858 21.6165 0.886948 22.3658 1.86207 22.3658H5.87902C5.82417 21.7695 5.79464 21.1657 5.79464 20.555Z" fill="#0972D0"/>
<path d="M54.1059 1.13232H52.6182C50.8054 1.13232 49.3359 2.60174 49.3359 4.41451V18.4701L49.4994 18.5554H50.8776L52.3062 17.5897L52.9577 16.163V4.99611C52.9577 4.8624 53.0661 4.754 53.1998 4.754H54.1059L54.519 4.36025V1.52314L54.1059 1.13232Z" fill="#5291D9"/>
<path d="M49.6755 18.4702H49.3359C49.3359 18.6216 49.2132 18.7443 49.0617 18.7443H45.0101C45.065 19.3408 45.0944 19.9445 45.0944 20.5552C45.0944 21.1657 45.065 21.7695 45.0101 22.3661H49.6754C51.488 22.3661 52.9576 20.8965 52.9576 19.0839V15.188C52.9577 17.0008 51.4881 18.4702 49.6755 18.4702Z" fill="#0972D0"/>
<path d="M58.138 1.13232H54.1059V4.754H58.1892C59.2183 4.754 60.0469 3.89549 59.998 2.85557C59.9521 1.88162 59.1131 1.13232 58.138 1.13232Z" fill="#DBEDFF"/>
<path d="M25.4447 0C14.1104 0 4.88928 9.22113 4.88928 20.5554C4.88928 31.8896 14.1104 41.1108 25.4447 41.1108C36.7789 41.1108 46.0001 31.8896 46.0001 20.5554C46.0001 9.22113 36.7789 0 25.4447 0ZM44.115 21.4607C43.7383 23.7916 41.9146 25.9888 38.8827 27.7256C35.302 29.7769 30.5296 30.9066 25.4447 30.9066C20.3598 30.9066 15.5873 29.7769 12.0067 27.7256C8.97479 25.9888 7.151 23.7916 6.77436 21.4607H44.115ZM6.77436 19.6499C7.151 17.319 8.97479 15.1219 12.0067 13.385C15.5874 11.3338 20.3598 10.2041 25.4447 10.2041C30.5296 10.2041 35.3019 11.3338 38.8827 13.385C41.9146 15.1219 43.7383 17.319 44.115 19.6499H6.77436ZM25.4447 1.81078C33.5869 1.81078 40.532 7.02973 43.1137 14.2977C42.2038 13.3972 41.0897 12.5624 39.7829 11.8137C35.9325 9.60797 30.8405 8.39309 25.4448 8.39309C20.0491 8.39309 14.957 9.60785 11.1067 11.8137C9.79991 12.5623 8.68581 13.3972 7.77584 14.2977C10.3574 7.02984 17.3024 1.81078 25.4447 1.81078ZM25.4447 39.2999C17.3025 39.2999 10.3574 34.0809 7.77573 26.813C8.68569 27.7134 9.79979 28.5483 11.1065 29.297C14.957 31.5027 20.049 32.7175 25.4447 32.7175C30.8403 32.7175 35.9325 31.5027 39.7828 29.297C41.0896 28.5484 42.2037 27.7134 43.1136 26.813C40.532 34.0809 33.5869 39.2999 25.4447 39.2999Z" fill="#DBEDFF"/>
</svg>
