<svg width="30" height="30" viewBox="0 0 30 30" fill="none" xmlns="http://www.w3.org/2000/svg">
<rect x="0.5" y="0.5" width="29" height="29" rx="6.5" stroke="#434648" stroke-opacity="0.5"/>
<path d="M18.7433 17.417C18.0827 17.417 17.4875 17.7067 17.0745 18.1675L13.3591 15.8309C13.4583 15.573 13.5133 15.293 13.5133 15C13.5133 14.7069 13.4583 14.4268 13.3591 14.1691L17.0745 11.8324C17.4875 12.2932 18.0827 12.583 18.7433 12.583C19.9877 12.583 21 11.555 21 10.2914C21 9.02785 19.9877 8 18.7433 8C17.4989 8 16.4866 9.02795 16.4866 10.2915C16.4866 10.5845 16.5417 10.8646 16.6408 11.1224L12.9255 13.459C12.5125 12.9982 11.9173 12.7085 11.2567 12.7085C10.0123 12.7085 9 13.7365 9 15C9 16.2636 10.0123 17.2915 11.2567 17.2915C11.9173 17.2915 12.5125 17.0019 12.9255 16.541L16.6408 18.8776C16.5417 19.1354 16.4866 19.4155 16.4866 19.7086C16.4866 20.972 17.4989 22 18.7433 22C19.9877 22 21 20.972 21 19.7086C21 18.445 19.9877 17.417 18.7433 17.417ZM17.3095 10.2915C17.3095 9.48874 17.9527 8.83559 18.7433 8.83559C19.5339 8.83559 20.1771 9.48874 20.1771 10.2915C20.1771 11.0943 19.5339 11.7475 18.7433 11.7475C17.9527 11.7475 17.3095 11.0943 17.3095 10.2915ZM11.2567 16.4559C10.466 16.4559 9.82278 15.8028 9.82278 15C9.82278 14.1972 10.466 13.5441 11.2567 13.5441C12.0473 13.5441 12.6904 14.1972 12.6904 15C12.6904 15.8028 12.0473 16.4559 11.2567 16.4559ZM17.3095 19.7085C17.3095 18.9057 17.9527 18.2525 18.7433 18.2525C19.5339 18.2525 20.1771 18.9057 20.1771 19.7085C20.1771 20.5113 19.5339 21.1644 18.7433 21.1644C17.9527 21.1644 17.3095 20.5113 17.3095 19.7085Z" fill="#464848"/>
</svg>
