<svg width="141" height="24" viewBox="0 0 141 24" fill="none" xmlns="http://www.w3.org/2000/svg">
<path d="M1.36 15.9128H2.72V11.8328H5.015C6.868 11.8328 8.415 10.3028 8.415 8.51784C8.415 6.73284 6.868 5.20284 5.015 5.20284H1.36V15.9128ZM2.72 10.6428V6.39284H5.015C6.12 6.39284 7.055 7.32784 7.055 8.51784C7.055 9.70784 6.12 10.6428 5.015 10.6428H2.72ZM13.1306 14.8078C11.9406 14.8078 10.8356 13.7198 10.8356 12.0878C10.8356 10.4558 11.9406 9.36784 13.1306 9.36784C14.3036 9.36784 15.4256 10.4558 15.4256 12.0878C15.4256 13.7198 14.3036 14.8078 13.1306 14.8078ZM13.1306 15.9978C15.1026 15.9978 16.7006 14.3828 16.7006 12.0878C16.7006 9.79284 15.1026 8.17784 13.1306 8.17784C11.1586 8.17784 9.56062 9.79284 9.56062 12.0878C9.56062 14.3828 11.1586 15.9978 13.1306 15.9978ZM20.2196 15.9128H21.2396L22.9396 10.4728L24.6396 15.9128H25.6596L28.2096 8.26284H26.8496L25.0646 13.7028L23.3646 8.26284H22.5146L20.8146 13.7028L19.0296 8.26284H17.6696L20.2196 15.9128ZM34.6936 13.8728C34.4386 14.2298 33.8266 14.8078 32.8236 14.8078C31.6166 14.8078 30.6136 13.7878 30.5286 12.6828H36.1386L36.1726 12.4958C36.1896 12.3768 36.2236 12.2238 36.2236 12.0028C36.2236 9.69084 34.6086 8.17784 32.7386 8.17784C30.8856 8.17784 29.1686 9.79284 29.1686 12.0878C29.1686 14.3828 30.7836 15.9978 32.8236 15.9978C34.5236 15.9978 35.5436 14.9778 36.0536 13.8728H34.6936ZM30.5286 11.5778C30.7156 10.3028 31.6336 9.36784 32.7386 9.36784C33.8436 9.36784 34.7616 10.3028 34.9486 11.5778H30.5286ZM38.1296 15.9128H39.4046V11.5778C39.4046 10.2858 40.2376 9.45284 41.4446 9.45284H41.7846V8.17784H41.6146C40.8836 8.17784 40.3566 8.39884 39.9656 8.65384C39.7446 8.78984 39.5576 8.94284 39.4046 9.11284L39.0646 8.26284H38.1296V15.9128ZM48.4413 13.8728C48.1863 14.2298 47.5743 14.8078 46.5713 14.8078C45.3643 14.8078 44.3613 13.7878 44.2763 12.6828H49.8863L49.9203 12.4958C49.9373 12.3768 49.9713 12.2238 49.9713 12.0028C49.9713 9.69084 48.3563 8.17784 46.4863 8.17784C44.6333 8.17784 42.9163 9.79284 42.9163 12.0878C42.9163 14.3828 44.5313 15.9978 46.5713 15.9978C48.2713 15.9978 49.2913 14.9778 49.8013 13.8728H48.4413ZM44.2763 11.5778C44.4633 10.3028 45.3813 9.36784 46.4863 9.36784C47.5913 9.36784 48.5093 10.3028 48.6963 11.5778H44.2763ZM55.0223 14.8078C53.7473 14.8078 52.6423 13.7198 52.6423 12.0878C52.6423 10.4558 53.7473 9.36784 55.0223 9.36784C56.2973 9.36784 57.4023 10.4558 57.4023 12.0878C57.4023 13.7198 56.2973 14.8078 55.0223 14.8078ZM57.5723 15.9128H58.5073V5.20284H57.2323V9.19784C57.0623 9.01084 56.8753 8.84084 56.6543 8.68784C56.2633 8.43284 55.7023 8.17784 54.9373 8.17784C52.9653 8.17784 51.3673 9.79284 51.3673 12.0878C51.3673 14.3828 52.9653 15.9978 54.9373 15.9978C55.7023 15.9978 56.2633 15.7938 56.6543 15.5388C56.8753 15.4028 57.0623 15.2498 57.2323 15.0628L57.5723 15.9128ZM68.4312 14.8078C67.1562 14.8078 66.0512 13.7198 66.0512 12.0878C66.0512 10.4558 67.1562 9.36784 68.4312 9.36784C69.7062 9.36784 70.8112 10.4558 70.8112 12.0878C70.8112 13.7198 69.7062 14.8078 68.4312 14.8078ZM64.9462 15.9128H65.8812L66.2212 15.0628C66.3742 15.2498 66.5782 15.4028 66.7992 15.5388C67.1902 15.7938 67.7512 15.9978 68.5162 15.9978C70.4882 15.9978 72.0862 14.3828 72.0862 12.0878C72.0862 9.79284 70.4882 8.17784 68.5162 8.17784C67.7512 8.17784 67.1902 8.43284 66.7992 8.68784C66.5782 8.84084 66.3742 9.01084 66.2212 9.19784V5.20284H64.9462V15.9128ZM74.3329 18.6328L74.4859 18.6838C74.6049 18.7008 74.7069 18.7178 74.8429 18.7178C75.8459 18.7178 76.4409 18.1398 77.0529 16.5928L80.3679 8.26284H79.0079L76.7129 14.1278L74.4179 8.26284H73.0579L76.0329 15.7428L75.6929 16.5928C75.4209 17.2728 75.0979 17.6128 74.3329 17.6128V18.6328Z" fill="#434343"/>
<mask id="mask0_858_261" style="mask-type:alpha" maskUnits="userSpaceOnUse" x="83" y="0" width="58" height="24">
<path d="M83.0078 0H140.959V23.9108H83.0078V0Z" fill="white"/>
</mask>
<g mask="url(#mask0_858_261)">
<path fill-rule="evenodd" clip-rule="evenodd" d="M89.0566 10.7557C87.8077 10.2962 87.1233 9.93879 87.1233 9.37718C87.1233 8.90058 87.5168 8.62833 88.2183 8.62833C89.5015 8.62833 90.8188 9.1219 91.7257 9.5643L92.2389 6.41598C91.5204 6.07557 90.0489 5.51396 88.013 5.51396C86.5759 5.51396 85.3781 5.88832 84.5228 6.58612C83.633 7.31787 83.171 8.37305 83.171 9.64943C83.171 11.9639 84.5912 12.951 86.9009 13.7849C88.3894 14.3124 88.8856 14.6869 88.8856 15.2655C88.8856 15.8271 88.4064 16.1504 87.5339 16.1504C86.456 16.1504 84.6767 15.6229 83.5133 14.9422L83 18.1246C83.9923 18.6862 85.8401 19.2648 87.7564 19.2648C89.279 19.2648 90.5451 18.9074 91.4006 18.2267C92.3587 17.4778 92.8549 16.3717 92.8549 14.9422C92.8549 12.5766 91.4006 11.5895 89.0566 10.7557ZM101.211 8.90058L101.724 5.76924H99.0142V1.96792L95.3709 2.56425L94.8448 5.76924L93.5634 5.97601L93.0838 8.90058H94.8396V15.0443C94.8396 16.644 95.2502 17.7502 96.0885 18.4309C96.79 18.9925 97.7994 19.2648 99.2195 19.2648C100.314 19.2648 100.982 19.0777 101.444 18.9585V15.6399C101.187 15.708 100.605 15.8271 100.212 15.8271C99.3735 15.8271 99.0142 15.4017 99.0142 14.4316V8.90058H101.211ZM109.348 5.58633C108.15 5.58633 107.192 6.21176 106.816 7.33497L106.559 5.76924H102.847V19.0095H107.09V10.4153C107.62 9.76852 108.373 9.53468 109.399 9.53468C109.622 9.53468 109.861 9.53468 110.152 9.58574V5.68844C109.861 5.62041 109.605 5.58633 109.348 5.58633ZM113.317 4.45878C114.549 4.45878 115.542 3.45478 115.542 2.22945C115.542 0.987025 114.549 0 113.317 0C112.068 0 111.076 0.987025 111.076 2.22945C111.076 3.45478 112.068 4.45878 113.317 4.45878ZM111.179 5.76924H115.439V19.0095H111.179V5.76924ZM127.512 6.96048C126.759 5.99043 125.715 5.51396 124.381 5.51396C123.149 5.51396 122.071 6.02451 121.061 7.09667L120.839 5.76924H117.109V23.9108L121.352 23.2131V18.9585C122.002 19.1627 122.67 19.2648 123.268 19.2648C124.329 19.2648 125.869 18.9925 127.067 17.6992C128.213 16.4567 128.795 14.5338 128.795 11.998C128.795 9.75154 128.367 8.04974 127.512 6.96048ZM123.987 15.1293C123.645 15.7761 123.114 16.1165 122.499 16.1165C122.071 16.1165 121.694 16.0313 121.352 15.8612V9.5643C122.071 8.81557 122.721 8.73044 122.96 8.73044C124.038 8.73044 124.569 9.88773 124.569 12.1511C124.569 13.4445 124.381 14.4486 123.987 15.1293ZM140.959 12.2702C140.959 10.16 140.497 8.49214 139.591 7.31787C138.667 6.12662 137.281 5.51396 135.519 5.51396C131.909 5.51396 129.667 8.16883 129.667 12.4234C129.667 14.806 130.266 16.5929 131.447 17.7331C132.507 18.7542 134.03 19.2648 135.998 19.2648C137.811 19.2648 139.488 18.8394 140.549 18.1416L140.087 15.2485C139.043 15.8101 137.828 16.1165 136.46 16.1165C135.638 16.1165 135.074 15.9462 134.663 15.5888C134.218 15.2144 133.962 14.6018 133.876 13.7338H140.908C140.925 13.5296 140.959 12.5766 140.959 12.2702ZM133.842 11.147C133.962 9.25797 134.475 8.37305 135.45 8.37305C136.408 8.37305 136.904 9.27507 136.973 11.147H133.842Z" fill="#625BFF"/>
</g>
</svg>
