<svg width="60" height="60" viewBox="0 0 60 60" fill="none" xmlns="http://www.w3.org/2000/svg">
<path d="M19.0875 45.9375C17.2488 45.9375 15.9234 45.4793 15.1102 44.5641C14.2969 43.6488 13.8914 42.191 13.8914 40.193V38.2242H17.8734V40.7414C17.8734 41.2066 17.9438 41.5711 18.0855 41.8348C18.2262 42.0984 18.4723 42.2297 18.8238 42.2297C19.1754 42.2297 19.4437 42.123 19.5844 41.9098C19.725 41.6965 19.7965 41.3449 19.7965 40.8574C19.7965 40.2398 19.7355 39.723 19.6137 39.307C19.4918 38.891 19.2797 38.4949 18.9785 38.1164C18.6773 37.7391 18.259 37.2984 17.7258 36.7945L15.9176 35.0777C14.5676 33.8039 13.8914 32.3461 13.8914 30.7066C13.8914 29.0672 14.2898 27.682 15.0879 26.7809C15.8848 25.8809 17.0391 25.4309 18.5496 25.4309C20.3953 25.4309 21.7066 25.923 22.4801 26.9074C23.2547 27.8918 23.6414 29.3871 23.6414 31.3934H19.5445V30.0082C19.5445 29.734 19.466 29.5195 19.3102 29.3672C19.1543 29.2148 18.9422 29.1387 18.675 29.1387C18.3551 29.1387 18.1195 29.2289 17.9707 29.407C17.8219 29.5863 17.748 29.8172 17.748 30.0996C17.748 30.382 17.8242 30.6867 17.9766 31.0148C18.1289 31.343 18.4301 31.7203 18.8801 32.148L21.2027 34.3793C21.668 34.8223 22.0957 35.2887 22.4848 35.7809C22.8738 36.273 23.1867 36.8449 23.4234 37.4977C23.6602 38.1504 23.7785 38.9449 23.7785 39.8836C23.7785 41.7762 23.4293 43.2574 22.7309 44.3297C22.0324 45.402 20.8172 45.9375 19.0863 45.9375H19.0875ZM29.7762 45.9375C28.098 45.9375 26.8617 45.4664 26.0684 44.5242C25.275 43.582 24.8777 42.1957 24.8777 40.3641V25.6125H28.7918V40.2035C28.7918 40.5398 28.8105 40.8621 28.8492 41.1703C28.8879 41.4797 28.9746 41.7328 29.1129 41.9309C29.25 42.1289 29.4715 42.2285 29.7762 42.2285C30.0809 42.2285 30.3141 42.1312 30.4512 41.9367C30.5883 41.7422 30.6738 41.4891 30.709 41.1762C30.743 40.8633 30.7605 40.5387 30.7605 40.2035V25.6125H34.6746V40.3641C34.6746 42.1945 34.2773 43.582 33.484 44.5242C32.6906 45.4664 31.4543 45.9375 29.7762 45.9375ZM36.2191 45.7547V25.6125H40.3617L42.2156 35.2594V25.6125H46.1063V45.7547H42.1699L40.1555 35.6836V45.7547H36.2191ZM27.0703 8.4375C27.0703 10.0559 28.3816 11.3672 30 11.3672C31.6184 11.3672 32.9297 10.0559 32.9297 8.4375C32.9297 7.47891 32.4691 6.62813 31.7578 6.09375V1.75781C31.7578 0.7875 30.9703 0 30 0C29.0297 0 28.2422 0.7875 28.2422 1.75781V6.09375C27.5309 6.62813 27.0703 7.47891 27.0703 8.4375ZM39.416 11.3672C41.0344 11.3672 42.3457 10.0559 42.3457 8.4375C42.3457 7.47891 41.8852 6.62813 41.1738 6.09375V1.75781C41.1738 0.7875 40.3863 0 39.416 0C38.4457 0 37.6582 0.7875 37.6582 1.75781V6.09375C36.9469 6.62813 36.4863 7.47891 36.4863 8.4375C36.4863 10.0559 37.7977 11.3672 39.416 11.3672ZM48.832 11.3672C50.4504 11.3672 51.7617 10.0559 51.7617 8.4375C51.7617 7.47891 51.3012 6.62813 50.5898 6.09375V1.75781C50.5898 0.7875 49.8023 0 48.832 0C47.8617 0 47.0742 0.7875 47.0742 1.75781V6.09375C46.3629 6.62813 45.9023 7.47891 45.9023 8.4375C45.9023 10.0559 47.2137 11.3672 48.832 11.3672ZM17.6531 8.4375C17.6531 10.0559 18.9645 11.3672 20.5828 11.3672C22.2012 11.3672 23.5125 10.0559 23.5125 8.4375C23.5125 7.47891 23.052 6.62813 22.3406 6.09375V1.75781C22.3406 0.7875 21.5531 0 20.5828 0C19.6125 0 18.825 0.7875 18.825 1.75781V6.09375C18.1137 6.62813 17.6531 7.47891 17.6531 8.4375ZM8.23711 8.4375C8.23711 10.0559 9.54844 11.3672 11.1668 11.3672C12.7852 11.3672 14.0965 10.0559 14.0965 8.4375C14.0965 7.47891 13.6359 6.62813 12.9246 6.09375V1.75781C12.9246 0.7875 12.1371 0 11.1668 0C10.1965 0 9.40898 0.7875 9.40898 1.75781V6.09375C8.69766 6.62813 8.23711 7.47891 8.23711 8.4375ZM51.7969 4.33594H51.7617V5.56992C52.4859 6.31055 52.9336 7.32188 52.9336 8.4375C52.9336 10.698 51.0938 12.5391 48.832 12.5391C46.5703 12.5391 44.7305 10.698 44.7305 8.4375C44.7305 7.32188 45.1781 6.31055 45.9023 5.56992V4.33594H42.3457V5.56992C43.0699 6.31055 43.5176 7.32188 43.5176 8.4375C43.5176 10.698 41.6777 12.5391 39.416 12.5391C37.1543 12.5391 35.3145 10.698 35.3145 8.4375C35.3145 7.32188 35.7621 6.31055 36.4863 5.56992V4.33594H32.9297V5.56992C33.6539 6.31055 34.1016 7.32188 34.1016 8.4375C34.1016 10.698 32.2617 12.5391 30 12.5391C27.7383 12.5391 25.8984 10.698 25.8984 8.4375C25.8984 7.32188 26.3461 6.31055 27.0703 5.56992V4.33594H23.5137V5.56992C24.2379 6.31055 24.6855 7.32188 24.6855 8.4375C24.6855 10.698 22.8457 12.5391 20.584 12.5391C18.3223 12.5391 16.4824 10.698 16.4824 8.4375C16.4824 7.32188 16.9301 6.31055 17.6543 5.56992V4.33594H14.0977V5.56992C14.8219 6.31055 15.2695 7.32188 15.2695 8.4375C15.2695 10.698 13.4285 12.5391 11.168 12.5391C8.90742 12.5391 7.06641 10.698 7.06641 8.4375C7.06641 7.32188 7.51406 6.31055 8.23828 5.56992V4.33594H8.20312C3.67266 4.33594 0 8.00859 0 12.5391V51.7969C0 56.3273 3.67266 60 8.20312 60H51.7969L60 51.7969V12.5391C60 8.00859 56.3273 4.33594 51.7969 4.33594ZM57.6562 49.4531H52.3828C50.7645 49.4531 49.4531 50.7645 49.4531 52.3828V57.6562H9.375C5.49141 57.6562 2.34375 54.5074 2.34375 50.625V20.7422C2.34375 16.8586 5.49141 13.7109 9.375 13.7109H50.625C54.5086 13.7109 57.6562 16.8586 57.6562 20.7422V49.4531Z" fill="#F27182"/>
</svg>
