<svg width="70" height="70" viewBox="0 0 70 70" fill="none" xmlns="http://www.w3.org/2000/svg">
<rect width="70" height="70" rx="35" fill="#5EC9F6"/>
<path d="M33.2568 44.4435L33.0646 48.6826H25.2997C25.3891 46.5994 24.6285 44.5692 23.1923 43.0575C20.9487 40.7255 19.1858 38.378 18.2408 35.9901C18.0734 35.5616 17.9918 35.1042 18.0007 34.6441V27.4698C18.0079 26.8179 18.4669 26.2586 19.1049 26.1244C19.8034 26.0273 20.4524 26.5034 20.5695 27.1988L21.587 33.8498C22.2893 35.7034 23.5756 37.2783 25.2517 38.3366C25.6845 38.6331 26.1653 38.9616 26.718 38.6092C26.9938 38.2501 26.9596 37.7419 26.6382 37.423L24.3706 35.6281C23.6458 35.16 23.3186 34.2683 23.5687 33.4426C23.6771 32.9941 24.1285 32.7184 24.577 32.8268C24.6816 32.8522 24.7804 32.8974 24.8678 32.9602L29.4349 36.2218C30.2407 36.6696 30.9319 37.2977 31.4543 38.0571C32.7589 39.9215 33.394 42.1723 33.2568 44.4435Z" fill="#FED19A"/>
<path d="M24.6395 48.4482H33.3111C33.6181 48.4482 33.8669 48.6971 33.8669 49.0041V52.3828C33.8669 52.6898 33.618 52.9386 33.3111 52.9386H24.6395C24.3325 52.9386 24.0837 52.6897 24.0837 52.3828V49.0041C24.0837 48.6971 24.3326 48.4482 24.6395 48.4482Z" fill="#575B6D"/>
<path d="M31.9614 51.3764C32.3387 51.3764 32.6445 51.0706 32.6445 50.6933C32.6445 50.3161 32.3387 50.0103 31.9614 50.0103C31.5841 50.0103 31.2783 50.3161 31.2783 50.6933C31.2783 51.0706 31.5841 51.3764 31.9614 51.3764Z" fill="#828A9E"/>
<path d="M37.2723 44.4435L37.4645 48.6826H45.2294C45.14 46.5994 45.9005 44.5692 47.3367 43.0575C49.5804 40.7255 51.3432 38.378 52.2883 35.9901C52.4556 35.5615 52.5373 35.1042 52.5284 34.6441V27.4698C52.5212 26.8179 52.0621 26.2586 51.4242 26.1244C50.7257 26.0273 50.0767 26.5034 49.9595 27.1988L48.9394 33.8498C48.2378 35.703 46.9525 37.2778 45.2774 38.3366C44.8445 38.6331 44.3638 38.9616 43.8111 38.6092C43.5352 38.2501 43.5694 37.7419 43.8909 37.423L46.1585 35.6281C46.8833 35.16 47.2104 34.2683 46.9604 33.4426C46.852 32.9941 46.4005 32.7184 45.9521 32.8268C45.8475 32.8522 45.7487 32.8974 45.6613 32.9602L41.0947 36.2218C40.2889 36.6695 39.5977 37.2977 39.0752 38.057C37.7706 39.9214 37.1352 42.1722 37.2723 44.4435Z" fill="#FED19A"/>
<path d="M36.9593 48.4482H45.7492C46.0603 48.4482 46.3125 48.7005 46.3125 49.0116V52.4366C46.3125 52.7478 46.0603 53 45.7492 53H36.9593C36.6482 53 36.396 52.7478 36.396 52.4366V49.0116C36.396 48.7004 36.6482 48.4482 36.9593 48.4482Z" fill="#575B6D"/>
<path d="M38.3276 51.4858C38.7098 51.4858 39.0197 51.176 39.0197 50.7937C39.0197 50.4114 38.7098 50.1016 38.3276 50.1016C37.9453 50.1016 37.6354 50.4114 37.6354 50.7937C37.6354 51.176 37.9453 51.4858 38.3276 51.4858Z" fill="#828A9E"/>
<path d="M39.311 17.0001C37.8176 16.9996 36.3766 17.5508 35.2646 18.5478C32.7608 16.3093 28.9163 16.5243 26.6777 19.028C25.6792 20.1448 25.1281 21.5908 25.1299 23.0889C25.1299 29.396 35.2645 36.1157 35.2645 36.1157C35.2645 36.1157 45.4147 29.4183 45.3992 23.0889C45.3963 19.7276 42.6724 17.0033 39.311 17.0001Z" fill="#EF5261"/>
</svg>
