<svg width="61" height="60" viewBox="0 0 61 60" fill="none" xmlns="http://www.w3.org/2000/svg">
<path d="M45.4858 2.96516L42.9958 0L31.6926 9.48387L32.9313 10.9694C33.0516 11.1172 33.1089 11.3064 33.0909 11.4962C33.0728 11.686 32.9809 11.861 32.8349 11.9835C32.6888 12.106 32.5005 12.1662 32.3105 12.151C32.1204 12.1358 31.944 12.0464 31.8194 11.9023L30.5758 10.4197L0 36.0794L2.48903 39.0445C3.23853 39.0039 3.9872 39.1383 4.67583 39.4369C5.36447 39.7355 5.97419 40.1903 6.45677 40.7652C6.93951 41.3405 7.28168 42.0204 7.45619 42.7509C7.63071 43.4813 7.63279 44.2424 7.46226 44.9739L9.95032 47.939C10.6999 47.8986 11.4486 48.033 12.1373 48.3318C12.8259 48.6306 13.4356 49.0856 13.9181 49.6606C14.4024 50.2355 14.7462 50.9154 14.9221 51.6463C15.0979 52.3772 15.1011 53.139 14.9313 53.8713L17.4194 56.8365L48 31.1768L46.7555 29.6942C46.6925 29.6214 46.6447 29.5368 46.6147 29.4454C46.5848 29.3539 46.5733 29.2575 46.581 29.1615C46.5887 29.0656 46.6153 28.9722 46.6595 28.8867C46.7036 28.8011 46.7643 28.7252 46.838 28.6634C46.9117 28.6016 46.997 28.555 47.0889 28.5264C47.1807 28.4978 47.2774 28.4878 47.3732 28.4969C47.469 28.506 47.562 28.5341 47.6469 28.5795C47.7317 28.6248 47.8067 28.6867 47.8674 28.7613L49.1119 30.2439L60.4152 20.7571L57.9271 17.7919C57.1775 17.8324 56.4288 17.6979 55.7402 17.3991C55.0515 17.1003 54.4418 16.6454 53.9594 16.0703C53.4766 15.495 53.1345 14.8151 52.9599 14.0846C52.7854 13.3541 52.7833 12.593 52.9539 11.8616L50.4648 8.89645C49.7153 8.93693 48.9665 8.80245 48.2779 8.50364C47.5893 8.20484 46.9796 7.74991 46.4971 7.17484C46.0132 6.59987 45.6699 5.92011 45.4944 5.18942C45.3188 4.45872 45.3159 3.69718 45.4858 2.96516ZM45.7326 26.219C45.7955 26.2918 45.8434 26.3764 45.8733 26.4678C45.9033 26.5593 45.9148 26.6558 45.9071 26.7517C45.8994 26.8476 45.8727 26.9411 45.8286 27.0266C45.7845 27.1121 45.7238 27.188 45.6501 27.2498C45.5764 27.3117 45.4911 27.3582 45.3992 27.3868C45.3073 27.4154 45.2107 27.4255 45.1149 27.4163C45.0191 27.4072 44.9261 27.3792 44.8412 27.3338C44.7564 27.2884 44.6814 27.2266 44.6206 27.1519L42.4916 24.6106C42.4287 24.5379 42.3808 24.4533 42.3509 24.3618C42.3209 24.2704 42.3094 24.1739 42.3171 24.078C42.3248 23.9821 42.3515 23.8886 42.3956 23.8031C42.4397 23.7176 42.5004 23.6417 42.5741 23.5799C42.6478 23.518 42.7331 23.4714 42.825 23.4428C42.9169 23.4143 43.0135 23.4042 43.1093 23.4133C43.2051 23.4224 43.2981 23.4505 43.383 23.4959C43.4678 23.5413 43.5428 23.6031 43.6035 23.6777L45.7326 26.219ZM41.4668 21.1355C41.5297 21.2083 41.5776 21.2928 41.6075 21.3843C41.6375 21.4757 41.649 21.5722 41.6413 21.6681C41.6336 21.7641 41.6069 21.8575 41.5628 21.943C41.5187 22.0285 41.458 22.1044 41.3843 22.1663C41.3106 22.2281 41.2253 22.2747 41.1334 22.3033C41.0415 22.3319 40.9449 22.3419 40.8491 22.3328C40.7533 22.3237 40.6603 22.2956 40.5754 22.2502C40.4906 22.2048 40.4156 22.143 40.3548 22.0684L38.2258 19.5271C38.1091 19.3787 38.0548 19.1908 38.0742 19.003C38.0936 18.8153 38.1853 18.6425 38.3299 18.5211C38.4745 18.3998 38.6606 18.3395 38.8489 18.3529C39.0372 18.3664 39.2128 18.4526 39.3387 18.5932L41.4668 21.1355ZM37.2019 16.0529C37.3223 16.2007 37.3796 16.39 37.3615 16.5798C37.3435 16.7695 37.2515 16.9446 37.1055 17.0671C36.9595 17.1896 36.7711 17.2497 36.5811 17.2345C36.3911 17.2193 36.2147 17.13 36.09 16.9858L33.961 14.4435C33.8406 14.2957 33.7833 14.1065 33.8014 13.9167C33.8194 13.7269 33.9114 13.5519 34.0574 13.4294C34.2034 13.3069 34.3918 13.2467 34.5818 13.2619C34.7718 13.2771 34.9482 13.3665 35.0729 13.5106L37.2019 16.0529Z" fill="#EF6B8B"/>
<path d="M45.4858 2.965L44.2423 1.48242L32.9313 10.9692C33.0516 11.117 33.109 11.3063 33.0909 11.496C33.0729 11.6858 32.9809 11.8608 32.8349 11.9834C32.6888 12.1059 32.5005 12.166 32.3105 12.1508C32.1205 12.1356 31.9441 12.0463 31.8194 11.9021L2.72711 36.3173L3.97163 37.7998C4.72121 37.7594 5.46992 37.8938 6.15857 38.1926C6.8472 38.4914 7.45688 38.9464 7.93937 39.5215C8.42225 40.0969 8.7645 40.7769 8.93902 41.5076C9.11355 42.2383 9.11554 42.9995 8.94485 43.7311L11.4329 46.6963C12.1824 46.6557 12.9311 46.79 13.6197 47.0887C14.3084 47.3873 14.9181 47.842 15.4007 48.4169C15.8835 48.9924 16.2258 49.6724 16.4003 50.4031C16.5748 51.1338 16.5768 51.895 16.4061 52.6266L18.899 55.5918L47.9981 31.1766L46.7536 29.694C46.6906 29.6212 46.6428 29.5367 46.6128 29.4452C46.5829 29.3538 46.5714 29.2573 46.5791 29.1614C46.5867 29.0655 46.6134 28.972 46.6575 28.8865C46.7016 28.801 46.7623 28.7251 46.8361 28.6632C46.9098 28.6014 46.9951 28.5548 47.0869 28.5262C47.1788 28.4976 47.2755 28.4876 47.3713 28.4967C47.4671 28.5058 47.5601 28.5339 47.6449 28.5793C47.7298 28.6247 47.8048 28.6865 47.8655 28.7611L49.11 30.2437L60.4152 20.7569L57.9271 17.7918C57.1775 17.8323 56.4288 17.6978 55.7402 17.399C55.0515 17.1002 54.4419 16.6452 53.9594 16.0702C53.4766 15.4948 53.1345 14.815 52.9599 14.0845C52.7854 13.354 52.7834 12.5929 52.9539 11.8615L50.4649 8.89629C49.7153 8.93677 48.9666 8.80229 48.2779 8.50349C47.5893 8.20468 46.9796 7.74975 46.4971 7.17468C46.0132 6.59972 45.6699 5.91995 45.4944 5.18926C45.3188 4.45856 45.3159 3.69703 45.4858 2.965ZM45.7326 26.2189C45.7955 26.2917 45.8434 26.3762 45.8733 26.4677C45.9033 26.5591 45.9148 26.6556 45.9071 26.7515C45.8994 26.8475 45.8727 26.9409 45.8286 27.0264C45.7845 27.1119 45.7238 27.1878 45.6501 27.2497C45.5764 27.3115 45.4911 27.3581 45.3992 27.3867C45.3073 27.4153 45.2107 27.4253 45.1149 27.4162C45.0191 27.4071 44.9261 27.379 44.8412 27.3336C44.7564 27.2882 44.6814 27.2264 44.6207 27.1518L42.4916 24.6105C42.4287 24.5377 42.3808 24.4531 42.3509 24.3617C42.3209 24.2702 42.3095 24.1737 42.3171 24.0778C42.3248 23.9819 42.3515 23.8885 42.3956 23.8029C42.4397 23.7174 42.5004 23.6415 42.5741 23.5797C42.6478 23.5178 42.7331 23.4713 42.825 23.4427C42.9169 23.4141 43.0135 23.4041 43.1093 23.4132C43.2051 23.4223 43.2982 23.4503 43.383 23.4957C43.4678 23.5411 43.5428 23.6029 43.6036 23.6776L45.7326 26.2189ZM41.4668 21.1353C41.5297 21.2081 41.5776 21.2927 41.6075 21.3841C41.6375 21.4756 41.649 21.5721 41.6413 21.668C41.6336 21.7639 41.6069 21.8573 41.5628 21.9429C41.5187 22.0284 41.458 22.1043 41.3843 22.1661C41.3106 22.228 41.2253 22.2745 41.1334 22.3031C41.0415 22.3317 40.9449 22.3417 40.8491 22.3326C40.7533 22.3235 40.6603 22.2955 40.5754 22.2501C40.4906 22.2047 40.4156 22.1429 40.3549 22.0682L38.2258 19.5269C38.1091 19.3786 38.0548 19.1906 38.0742 19.0029C38.0936 18.8151 38.1854 18.6423 38.3299 18.521C38.4745 18.3996 38.6607 18.3393 38.8489 18.3528C39.0372 18.3662 39.2129 18.4524 39.3387 18.5931L41.4668 21.1353ZM37.202 16.0527C37.3223 16.2006 37.3796 16.3898 37.3616 16.5796C37.3435 16.7694 37.2515 16.9444 37.1055 17.0669C36.9595 17.1894 36.7711 17.2496 36.5811 17.2344C36.3911 17.2192 36.2147 17.1298 36.09 16.9856L33.961 14.4434C33.8407 14.2955 33.7833 14.1063 33.8014 13.9165C33.8194 13.7268 33.9114 13.5517 34.0574 13.4292C34.2034 13.3067 34.3918 13.2466 34.5818 13.2618C34.7718 13.277 34.9482 13.3663 35.0729 13.5105L37.202 16.0527Z" fill="#EB466E"/>
<path d="M15.8356 27.8418L30.6614 15.3966L43.1066 30.2224L28.2808 42.6676L15.8356 27.8418Z" fill="#F2FBFF"/>
<path d="M30.1926 14.85L15.3658 27.2904C15.2185 27.4143 15.1264 27.5916 15.1097 27.7834C15.093 27.9752 15.1531 28.1657 15.2768 28.3133L27.7181 43.141C27.8418 43.2882 28.019 43.3803 28.2106 43.397C28.4022 43.4137 28.5926 43.3536 28.74 43.23L43.5668 30.7887C43.6398 30.7275 43.7 30.6525 43.744 30.568C43.788 30.4835 43.8149 30.3911 43.8231 30.2962C43.8314 30.2013 43.8209 30.1057 43.7922 30.0149C43.7635 29.924 43.7171 29.8397 43.6558 29.7668L31.2155 14.94C31.0917 14.7926 30.9144 14.7003 30.7226 14.6835C30.5309 14.6666 30.3402 14.7265 30.1926 14.85ZM29.1571 32.5626L25.9442 28.7323L29.7745 25.5184L32.9884 29.3478L29.1571 32.5626ZM33.9203 30.4597L37.1342 34.291L33.3039 37.5049L30.091 33.6775L33.9203 30.4597ZM21.001 32.8791L24.8313 29.6652L28.0452 33.4955L24.2148 36.7094L21.001 32.8791ZM25.0103 27.6204L21.8022 23.79L25.6326 20.5762L28.8464 24.4065L25.0103 27.6204ZM30.8855 24.5855L34.7158 21.3716L37.9297 25.201L34.0993 28.4149L30.8855 24.5855ZM33.7829 20.2597L29.9526 23.4736L26.7377 19.6452L30.5681 16.4313L33.7829 20.2597ZM20.6855 24.7229L23.8993 28.5533L20.069 31.7671L16.8552 27.9368L20.6855 24.7229ZM25.1487 37.8213L28.979 34.6075L32.1929 38.4378L28.3635 41.6516L25.1487 37.8213ZM38.2481 33.3571L35.0332 29.5268L38.8635 26.3129L42.0774 30.1433L38.2481 33.3571Z" fill="#E2F6FF"/>
<path d="M36.5902 10.4209L41.038 6.68735L53.4831 21.5132L49.0354 25.2467L36.5902 10.4209Z" fill="#F2FBFF"/>
<path d="M56.5442 36.7743V32.9033H41.7861V34.8388C41.7861 35.0313 41.7097 35.2159 41.5735 35.352C41.4374 35.4881 41.2528 35.5646 41.0603 35.5646C40.8678 35.5646 40.6832 35.4881 40.5471 35.352C40.411 35.2159 40.3345 35.0313 40.3345 34.8388V32.9033H0.415161V36.7743C1.01611 37.225 1.50387 37.8094 1.83981 38.4813C2.17575 39.1532 2.35064 39.8941 2.35064 40.6453C2.35064 41.3964 2.17575 42.1373 1.83981 42.8092C1.50387 43.4811 1.01611 44.0655 0.415161 44.5162V48.3872C1.01611 48.8379 1.50387 49.4223 1.83981 50.0942C2.17575 50.7661 2.35064 51.507 2.35064 52.2582C2.35064 53.0093 2.17575 53.7502 1.83981 54.4221C1.50387 55.094 1.01611 55.6784 0.415161 56.1291V60.0001H40.3345V58.0646C40.3345 57.8721 40.411 57.6875 40.5471 57.5514C40.6832 57.4153 40.8678 57.3388 41.0603 57.3388C41.2528 57.3388 41.4374 57.4153 41.5735 57.5514C41.7097 57.6875 41.7861 57.8721 41.7861 58.0646V60.0001H56.5442V56.1291C55.9432 55.6784 55.4555 55.094 55.1195 54.4221C54.7836 53.7502 54.6087 53.0093 54.6087 52.2582C54.6087 51.507 54.7836 50.7661 55.1195 50.0942C55.4555 49.4223 55.9432 48.8379 56.5442 48.3872V44.5162C55.9432 44.0655 55.4555 43.4811 55.1195 42.8092C54.7836 42.1373 54.6087 41.3964 54.6087 40.6453C54.6087 39.8941 54.7836 39.1532 55.1195 38.4813C55.4555 37.8094 55.9432 37.225 56.5442 36.7743ZM41.7861 54.7462C41.7861 54.9387 41.7097 55.1233 41.5735 55.2594C41.4374 55.3956 41.2528 55.472 41.0603 55.472C40.8678 55.472 40.6832 55.3956 40.5471 55.2594C40.411 55.1233 40.3345 54.9387 40.3345 54.7462V51.4288C40.3345 51.2363 40.411 51.0517 40.5471 50.9156C40.6832 50.7795 40.8678 50.703 41.0603 50.703C41.2528 50.703 41.4374 50.7795 41.5735 50.9156C41.7097 51.0517 41.7861 51.2363 41.7861 51.4288V54.7462ZM41.7861 48.1104C41.7861 48.3029 41.7097 48.4875 41.5735 48.6236C41.4374 48.7598 41.2528 48.8362 41.0603 48.8362C40.8678 48.8362 40.6832 48.7598 40.5471 48.6236C40.411 48.4875 40.3345 48.3029 40.3345 48.1104V44.792C40.3345 44.5995 40.411 44.4149 40.5471 44.2788C40.6832 44.1427 40.8678 44.0662 41.0603 44.0662C41.2528 44.0662 41.4374 44.1427 41.5735 44.2788C41.7097 44.4149 41.7861 44.5995 41.7861 44.792V48.1104ZM41.7861 41.4746C41.7861 41.6671 41.7097 41.8517 41.5735 41.9878C41.4374 42.1239 41.2528 42.2004 41.0603 42.2004C40.8678 42.2004 40.6832 42.1239 40.5471 41.9878C40.411 41.8517 40.3345 41.6671 40.3345 41.4746V38.1572C40.3345 37.9647 40.411 37.7801 40.5471 37.644C40.6832 37.5079 40.8678 37.4314 41.0603 37.4314C41.2528 37.4314 41.4374 37.5079 41.5735 37.644C41.7097 37.7801 41.7861 37.9647 41.7861 38.1572V41.4746Z" fill="#FFA300"/>
<path d="M56.5442 36.7744V34.8389H41.7861C41.7861 35.0314 41.7097 35.216 41.5735 35.3521C41.4374 35.4882 41.2528 35.5647 41.0603 35.5647C40.8678 35.5647 40.6832 35.4882 40.5471 35.3521C40.411 35.216 40.3345 35.0314 40.3345 34.8389H2.35065V36.7744C2.9516 37.2251 3.43935 37.8095 3.77529 38.4814C4.11124 39.1533 4.28613 39.8941 4.28613 40.6453C4.28613 41.3965 4.11124 42.1374 3.77529 42.8093C3.43935 43.4811 2.9516 44.0656 2.35065 44.5163V48.3873C2.9516 48.838 3.43935 49.4224 3.77529 50.0943C4.11124 50.7662 4.28613 51.507 4.28613 52.2582C4.28613 53.0094 4.11124 53.7503 3.77529 54.4222C3.43935 55.094 2.9516 55.6785 2.35065 56.1292V60.0002H40.3345V58.0647C40.3345 57.8722 40.411 57.6876 40.5471 57.5515C40.6832 57.4153 40.8678 57.3389 41.0603 57.3389C41.2528 57.3389 41.4374 57.4153 41.5735 57.5515C41.7097 57.6876 41.7861 57.8722 41.7861 58.0647V60.0002H56.5442V56.1292C55.9432 55.6785 55.4555 55.094 55.1195 54.4222C54.7836 53.7503 54.6087 53.0094 54.6087 52.2582C54.6087 51.507 54.7836 50.7662 55.1195 50.0943C55.4555 49.4224 55.9432 48.838 56.5442 48.3873V44.5163C55.9432 44.0656 55.4555 43.4811 55.1195 42.8093C54.7836 42.1374 54.6087 41.3965 54.6087 40.6453C54.6087 39.8941 54.7836 39.1533 55.1195 38.4814C55.4555 37.8095 55.9432 37.2251 56.5442 36.7744ZM41.7861 54.7463C41.7861 54.9388 41.7097 55.1234 41.5735 55.2595C41.4374 55.3956 41.2528 55.4721 41.0603 55.4721C40.8678 55.4721 40.6832 55.3956 40.5471 55.2595C40.411 55.1234 40.3345 54.9388 40.3345 54.7463V51.4289C40.3345 51.2364 40.411 51.0518 40.5471 50.9156C40.6832 50.7795 40.8678 50.7031 41.0603 50.7031C41.2528 50.7031 41.4374 50.7795 41.5735 50.9156C41.7097 51.0518 41.7861 51.2364 41.7861 51.4289V54.7463ZM41.7861 48.1105C41.7861 48.303 41.7097 48.4876 41.5735 48.6237C41.4374 48.7598 41.2528 48.8363 41.0603 48.8363C40.8678 48.8363 40.6832 48.7598 40.5471 48.6237C40.411 48.4876 40.3345 48.303 40.3345 48.1105V44.7921C40.3345 44.5996 40.411 44.415 40.5471 44.2789C40.6832 44.1428 40.8678 44.0663 41.0603 44.0663C41.2528 44.0663 41.4374 44.1428 41.5735 44.2789C41.7097 44.415 41.7861 44.5996 41.7861 44.7921V48.1105ZM41.7861 41.4747C41.7861 41.6672 41.7097 41.8518 41.5735 41.9879C41.4374 42.124 41.2528 42.2005 41.0603 42.2005C40.8678 42.2005 40.6832 42.124 40.5471 41.9879C40.411 41.8518 40.3345 41.6672 40.3345 41.4747V38.1573C40.3345 37.9648 40.411 37.7801 40.5471 37.644C40.6832 37.5079 40.8678 37.4314 41.0603 37.4314C41.2528 37.4314 41.4374 37.5079 41.5735 37.644C41.7097 37.7801 41.7861 37.9648 41.7861 38.1573V41.4747Z" fill="#FFA300"/>
<path d="M17.8345 36.7744H37.1894V56.1293H17.8345V36.7744Z" fill="#F2FBFF"/>
<path d="M37.1894 36.0483H17.8345C17.642 36.0483 17.4574 36.1248 17.3213 36.2609C17.1852 36.397 17.1087 36.5817 17.1087 36.7741V56.129C17.1087 56.3215 17.1852 56.5061 17.3213 56.6422C17.4574 56.7783 17.642 56.8548 17.8345 56.8548H37.1894C37.3818 56.8548 37.5665 56.7783 37.7026 56.6422C37.8387 56.5061 37.9152 56.3215 37.9152 56.129V36.7741C37.9152 36.5817 37.8387 36.397 37.7026 36.2609C37.5665 36.1248 37.3818 36.0483 37.1894 36.0483ZM25.0123 48.9512V43.9519H30.0116V48.9512H25.0123ZM30.0116 50.4029V55.4032H25.0123V50.4029H30.0116ZM18.5603 43.9519H23.5606V48.9512H18.5603V43.9519ZM25.0123 42.5003V37.5H30.0116V42.5003H25.0123ZM31.4632 43.9519H36.4635V48.9512H31.4632V43.9519ZM36.4635 42.5003H31.4632V37.5H36.4635V42.5003ZM23.5606 37.5V42.5003H18.5603V37.5H23.5606ZM18.5603 50.4029H23.5606V55.4032H18.5603V50.4029ZM31.4632 55.4032V50.4029H36.4635V55.4032H31.4632Z" fill="#E2F6FF"/>
<path d="M13.9636 37.5H6.22163C6.02913 37.5 5.84452 37.4235 5.7084 37.2874C5.57229 37.1513 5.49582 36.9666 5.49582 36.7741C5.49582 36.5817 5.57229 36.397 5.7084 36.2609C5.84452 36.1248 6.02913 36.0483 6.22163 36.0483H13.9636C14.1561 36.0483 14.3407 36.1248 14.4768 36.2609C14.6129 36.397 14.6894 36.5817 14.6894 36.7741C14.6894 36.9666 14.6129 37.1513 14.4768 37.2874C14.3407 37.4235 14.1561 37.5 13.9636 37.5Z" fill="#EB466E"/>
<path d="M13.9636 41.371H6.22163C6.02913 41.371 5.84452 41.2946 5.7084 41.1585C5.57229 41.0223 5.49582 40.8377 5.49582 40.6452C5.49582 40.4527 5.57229 40.2681 5.7084 40.132C5.84452 39.9959 6.02913 39.9194 6.22163 39.9194H13.9636C14.1561 39.9194 14.3407 39.9959 14.4768 40.132C14.6129 40.2681 14.6894 40.4527 14.6894 40.6452C14.6894 40.8377 14.6129 41.0223 14.4768 41.1585C14.3407 41.2946 14.1561 41.371 13.9636 41.371Z" fill="#EB466E"/>
<path d="M13.9636 45.2421H6.22163C6.02913 45.2421 5.84452 45.1657 5.7084 45.0296C5.57229 44.8934 5.49582 44.7088 5.49582 44.5163C5.49582 44.3238 5.57229 44.1392 5.7084 44.0031C5.84452 43.867 6.02913 43.7905 6.22163 43.7905H13.9636C14.1561 43.7905 14.3407 43.867 14.4768 44.0031C14.6129 44.1392 14.6894 44.3238 14.6894 44.5163C14.6894 44.7088 14.6129 44.8934 14.4768 45.0296C14.3407 45.1657 14.1561 45.2421 13.9636 45.2421Z" fill="#EB466E"/>
<path d="M13.9636 49.1127H6.22163C6.02913 49.1127 5.84452 49.0363 5.7084 48.9002C5.57229 48.764 5.49582 48.5794 5.49582 48.3869C5.49582 48.1944 5.57229 48.0098 5.7084 47.8737C5.84452 47.7376 6.02913 47.6611 6.22163 47.6611H13.9636C14.1561 47.6611 14.3407 47.7376 14.4768 47.8737C14.6129 48.0098 14.6894 48.1944 14.6894 48.3869C14.6894 48.5794 14.6129 48.764 14.4768 48.9002C14.3407 49.0363 14.1561 49.1127 13.9636 49.1127Z" fill="#EB466E"/>
<path d="M13.9636 52.9838H6.22163C6.02913 52.9838 5.84452 52.9074 5.7084 52.7713C5.57229 52.6351 5.49582 52.4505 5.49582 52.258C5.49582 52.0655 5.57229 51.8809 5.7084 51.7448C5.84452 51.6087 6.02913 51.5322 6.22163 51.5322H13.9636C14.1561 51.5322 14.3407 51.6087 14.4768 51.7448C14.6129 51.8809 14.6894 52.0655 14.6894 52.258C14.6894 52.4505 14.6129 52.6351 14.4768 52.7713C14.3407 52.9074 14.1561 52.9838 13.9636 52.9838Z" fill="#EB466E"/>
<path d="M13.9636 56.8549H6.22163C6.02913 56.8549 5.84452 56.7785 5.7084 56.6424C5.57229 56.5062 5.49582 56.3216 5.49582 56.1291C5.49582 55.9366 5.57229 55.752 5.7084 55.6159C5.84452 55.4798 6.02913 55.4033 6.22163 55.4033H13.9636C14.1561 55.4033 14.3407 55.4798 14.4768 55.6159C14.6129 55.752 14.6894 55.9366 14.6894 56.1291C14.6894 56.3216 14.6129 56.5062 14.4768 56.6424C14.3407 56.7785 14.1561 56.8549 13.9636 56.8549Z" fill="#EB466E"/>
<path d="M44.9313 36.7744H50.7378V56.1293H44.9313V36.7744Z" fill="#F2FBFF"/>
</svg>
