<svg width="55" height="34" viewBox="0 0 55 34" fill="none" xmlns="http://www.w3.org/2000/svg">
<path opacity="0.07" d="M50.4168 0H5.0835C2.67516 0 0.833496 1.84167 0.833496 4.25V29.75C0.833496 32.1583 2.81683 34 5.0835 34H50.4168C52.8252 34 54.6668 32.1583 54.6668 29.75V4.25C54.6668 1.84167 52.6835 0 50.4168 0Z" fill="#434648"/>
<path d="M50.4172 1.41699C51.9755 1.41699 53.2505 2.69199 53.2505 4.25033V29.7503C53.2505 31.3087 51.9755 32.5837 50.4172 32.5837H5.08382C3.52549 32.5837 2.25049 31.3087 2.25049 29.7503V4.25033C2.25049 2.69199 3.52549 1.41699 5.08382 1.41699H50.4172Z" fill="white"/>
<path d="M40.9244 14.308H40.4994C39.9327 15.7247 39.5077 16.433 39.0827 18.558H41.7743C41.3493 16.433 41.3493 15.4413 40.9244 14.308ZM45.0327 22.6663H42.6244C42.4827 22.6663 42.4827 22.6663 42.341 22.5247L42.0577 21.2497L41.916 20.9663H38.516C38.3744 20.9663 38.2327 20.9663 38.2327 21.2497L37.8077 22.5247C37.8077 22.6663 37.666 22.6663 37.666 22.6663H34.691L34.9744 21.958L39.0827 12.3247C39.0827 11.6163 39.5077 11.333 40.216 11.333H42.341C42.4827 11.333 42.6244 11.333 42.6244 11.6163L44.6077 20.8247C44.7494 21.3913 44.891 21.8163 44.891 22.383C45.0327 22.5247 45.0327 22.5247 45.0327 22.6663ZM26.0493 22.2413L26.616 19.6913C26.7577 19.6913 26.8993 19.833 26.8993 19.833C27.891 20.258 28.8827 20.5413 29.8743 20.3997C30.1577 20.3997 30.5827 20.258 30.866 20.1163C31.5744 19.833 31.5743 19.1247 31.0077 18.558C30.7243 18.2747 30.2994 18.133 29.8743 17.8497C29.3077 17.5663 28.741 17.283 28.316 16.858C26.616 15.4413 27.1827 13.458 28.1743 12.4663C29.0243 11.8997 29.4494 11.333 30.5827 11.333C32.2827 11.333 34.1244 11.333 34.9744 11.6163H35.116C34.9744 12.4663 34.8327 13.1747 34.5493 14.0247C33.841 13.7413 33.1327 13.458 32.4243 13.458C31.9993 13.458 31.5744 13.458 31.1493 13.5997C30.866 13.5997 30.7243 13.7413 30.5827 13.883C30.2994 14.1663 30.2994 14.5913 30.5827 14.8747L31.291 15.4413C31.8577 15.7247 32.4244 16.008 32.8493 16.2913C33.5577 16.7163 34.266 17.4247 34.4077 18.2747C34.691 19.5497 34.266 20.683 33.1327 21.533C32.4243 22.0997 32.141 22.383 31.1493 22.383C29.166 22.383 27.6077 22.5247 26.3327 22.0997C26.191 22.383 26.191 22.383 26.0493 22.2413ZM21.091 22.6663C21.2327 21.6747 21.2327 21.6747 21.3743 21.2497C22.0827 18.133 22.791 14.8747 23.3577 11.758C23.4993 11.4747 23.4994 11.333 23.7827 11.333H26.3327C26.0494 13.033 25.766 14.308 25.341 15.8663C24.916 17.9913 24.491 20.1163 23.9243 22.2413C23.9243 22.5247 23.7827 22.5247 23.4993 22.5247M7.91602 11.6163C7.91602 11.4747 8.19935 11.333 8.34102 11.333H13.1577C13.866 11.333 14.4327 11.758 14.5743 12.4663L15.8493 18.6997C15.8493 18.8413 15.8493 18.8413 15.991 18.983C15.991 18.8413 16.1327 18.8413 16.1327 18.8413L19.1077 11.6163C18.966 11.4747 19.1077 11.333 19.2493 11.333H22.2243C22.2243 11.4747 22.2243 11.4747 22.0827 11.6163L17.691 21.958C17.5493 22.2413 17.5493 22.383 17.4077 22.5247C17.266 22.6663 16.9827 22.5247 16.6993 22.5247H14.5743C14.4327 22.5247 14.291 22.5247 14.291 22.2413L12.0243 13.458C11.741 13.1747 11.316 12.7497 10.7493 12.608C9.89935 12.183 8.34102 11.8997 8.05768 11.8997L7.91602 11.6163Z" fill="#142688"/>
</svg>
