<svg width="38" height="12" viewBox="0 0 38 12" fill="none" xmlns="http://www.w3.org/2000/svg">
<path d="M33.0913 3.30804H32.6663C32.0997 4.72471 31.6747 5.43304 31.2497 7.55804H33.9413C33.5163 5.43304 33.5163 4.44137 33.0913 3.30804ZM37.1997 11.6664H34.7913C34.6497 11.6664 34.6497 11.6664 34.508 11.5247L34.2247 10.2497L34.083 9.96637H30.683C30.5413 9.96637 30.3997 9.96637 30.3997 10.2497L29.9747 11.5247C29.9747 11.6664 29.833 11.6664 29.833 11.6664H26.858L27.1413 10.958L31.2497 1.3247C31.2497 0.616371 31.6747 0.333038 32.383 0.333038H34.508C34.6497 0.333038 34.7913 0.333038 34.7913 0.616371L36.7747 9.82471C36.9163 10.3914 37.058 10.8164 37.058 11.383C37.1997 11.5247 37.1997 11.5247 37.1997 11.6664ZM18.2163 11.2414L18.783 8.69137C18.9247 8.69137 19.0663 8.83304 19.0663 8.83304C20.058 9.25804 21.0497 9.54137 22.0413 9.3997C22.3247 9.3997 22.7497 9.25804 23.033 9.11637C23.7413 8.83304 23.7413 8.12471 23.1747 7.55804C22.8913 7.27471 22.4663 7.13304 22.0413 6.84971C21.4747 6.56637 20.908 6.28304 20.483 5.85804C18.783 4.44137 19.3497 2.45804 20.3413 1.46637C21.1913 0.899705 21.6163 0.333038 22.7497 0.333038C24.4497 0.333038 26.2913 0.333038 27.1413 0.616371H27.283C27.1413 1.46637 26.9997 2.1747 26.7163 3.0247C26.008 2.74137 25.2997 2.45804 24.5913 2.45804C24.1663 2.45804 23.7413 2.45804 23.3163 2.59971C23.033 2.59971 22.8913 2.74137 22.7497 2.88304C22.4663 3.16637 22.4663 3.59137 22.7497 3.87471L23.458 4.44137C24.0247 4.7247 24.5913 5.00804 25.0163 5.29137C25.7247 5.71637 26.433 6.4247 26.5747 7.2747C26.858 8.5497 26.433 9.68304 25.2997 10.533C24.5913 11.0997 24.308 11.383 23.3163 11.383C21.333 11.383 19.7747 11.5247 18.4997 11.0997C18.358 11.383 18.358 11.383 18.2163 11.2414ZM13.258 11.6664C13.3997 10.6747 13.3997 10.6747 13.5413 10.2497C14.2497 7.13304 14.958 3.87471 15.5247 0.758039C15.6663 0.474705 15.6663 0.333038 15.9497 0.333038H18.4997C18.2163 2.03304 17.933 3.30804 17.508 4.86637C17.083 6.99137 16.658 9.11637 16.0913 11.2414C16.0913 11.5247 15.9497 11.5247 15.6663 11.5247M0.0830078 0.616371C0.0830078 0.474705 0.366341 0.333038 0.508008 0.333038H5.32467C6.03301 0.333038 6.59967 0.758039 6.74134 1.46637L8.01634 7.69971C8.01634 7.84137 8.01634 7.84137 8.15801 7.98304C8.15801 7.84137 8.29967 7.84137 8.29967 7.84137L11.2747 0.616371C11.133 0.474705 11.2747 0.333038 11.4163 0.333038H14.3913C14.3913 0.474705 14.3913 0.474705 14.2497 0.616371L9.85801 10.958C9.71634 11.2414 9.71634 11.383 9.57467 11.5247C9.43301 11.6664 9.14967 11.5247 8.86634 11.5247H6.74134C6.59967 11.5247 6.45801 11.5247 6.45801 11.2414L4.19134 2.45804C3.90801 2.17471 3.48301 1.7497 2.91634 1.60804C2.06634 1.18304 0.508008 0.899705 0.224674 0.899705L0.0830078 0.616371Z" fill="#142688"/>
</svg>
