<svg width="280" height="280" viewBox="0 0 280 280" fill="none" xmlns="http://www.w3.org/2000/svg">
<path d="M238 0H42C18.8398 0 0 18.8398 0 42V238C0 261.16 18.8398 280 42 280H238C261.16 280 280 261.16 280 238V42C280 18.8398 261.16 0 238 0Z" fill="url(#paint0_linear_835_1716)"/>
<path d="M213.227 164.733C208.564 167.085 202.938 168.329 196.943 168.329C184.495 168.329 172.382 163.202 165.307 154.944L135.939 120.819C126.13 109.362 112.301 102.8 98 102.8C83.6992 102.8 69.8701 109.362 60.0742 120.806L0 190.819V238.001C0 261.161 18.8398 280.001 42 280.001H238C261.16 280.001 280 261.161 280 238.001V131.347L213.227 164.733Z" fill="url(#paint1_linear_835_1716)"/>
<path d="M196 126C219.196 126 238 107.196 238 84C238 60.804 219.196 42 196 42C172.804 42 154 60.804 154 84C154 107.196 172.804 126 196 126Z" fill="url(#paint2_linear_835_1716)"/>
<defs>
<linearGradient id="paint0_linear_835_1716" x1="0" y1="140" x2="280" y2="140" gradientUnits="userSpaceOnUse">
<stop stop-color="#BBDEFB"/>
<stop offset="1" stop-color="#64B5F6"/>
</linearGradient>
<linearGradient id="paint1_linear_835_1716" x1="0" y1="191.409" x2="280" y2="191.409" gradientUnits="userSpaceOnUse">
<stop stop-color="#42A5F5"/>
<stop offset="1" stop-color="#1E88E5"/>
</linearGradient>
<linearGradient id="paint2_linear_835_1716" x1="154" y1="84" x2="238" y2="84" gradientUnits="userSpaceOnUse">
<stop stop-color="#42A5F5"/>
<stop offset="1" stop-color="#1E88E5"/>
</linearGradient>
</defs>
</svg>
