<svg width="67" height="48" viewBox="0 0 67 48" fill="none" xmlns="http://www.w3.org/2000/svg">
<rect y="23" width="67" height="25" fill="#E70020"/>
<path d="M43.4205 19.249H22.481V23.0002H43.4205V19.249Z" fill="#01A8FF"/>
<path d="M43.4225 19.249H33.0723V23.0002H43.4225V19.249Z" fill="#01A8FF"/>
<path d="M47.4498 9.36117L43.4186 20.3645H22.4868L18.4556 9.36117C18.253 8.8101 18.4134 8.20307 18.8638 7.81436C19.3134 7.42557 19.9534 7.3415 20.4935 7.59915L26.644 10.5379L31.5568 3.7265C31.8753 3.28488 32.3969 3.02051 32.9525 3.02051C32.9931 3.02051 33.033 3.02203 33.0729 3.02499C33.5839 3.05998 34.0535 3.31697 34.3489 3.7265L39.2609 10.5379L45.4121 7.59915C45.9522 7.34143 46.5921 7.42557 47.0418 7.81436C47.492 8.20307 47.6523 8.81002 47.4498 9.36117Z" fill="#FFA91D"/>
<path d="M34.89 1.86938C34.89 2.86584 34.0859 3.68056 33.0731 3.73565C33.0371 3.73789 33.001 3.73861 32.9641 3.73861C31.8999 3.73861 31.0375 2.90155 31.0375 1.86931C31.0375 0.83706 31.8999 0 32.9641 0C33.001 0 33.0371 0.000722913 33.0731 0.00296394C34.0859 0.0581945 34.89 0.872917 34.89 1.86938Z" fill="#01A8FF"/>
<path d="M17.9259 8.61947C18.9895 8.61947 19.8517 7.78256 19.8517 6.75017C19.8517 5.71778 18.9895 4.88086 17.9259 4.88086C16.8622 4.88086 16 5.71778 16 6.75017C16 7.78256 16.8622 8.61947 17.9259 8.61947Z" fill="#01A8FF"/>
<path d="M48.0743 8.91635C49.1379 8.91635 50.0002 8.07943 50.0002 7.04704C50.0002 6.01465 49.1379 5.17773 48.0743 5.17773C47.0107 5.17773 46.1484 6.01465 46.1484 7.04704C46.1484 8.07943 47.0107 8.91635 48.0743 8.91635Z" fill="#01A8FF"/>
<path d="M43.4181 20.362H33.0723V3.02246C33.5833 3.05745 34.0529 3.31445 34.3482 3.72398L39.2603 10.5353L45.4115 7.59662C45.9516 7.3389 46.5915 7.42305 47.0411 7.81183C47.4916 8.20061 47.6519 8.80757 47.4494 9.35864L43.4181 20.362Z" fill="#FF8900"/>
<path d="M33.0724 3.73652V0.00390625C34.0853 0.0589922 34.8893 0.873714 34.8893 1.87018C34.8894 2.86671 34.0853 3.68143 33.0724 3.73652Z" fill="#01A8FF"/>
<path d="M26.8557 33H27.8457L28.8807 29.67L29.9157 33H30.9057L32.7057 27.33H31.4457L30.3657 30.84L29.2857 27.33H28.4757L27.3957 30.84L26.3157 27.33H25.0557L26.8557 33ZM33.2939 33H34.5989V27.33H33.2939V33ZM35.6757 33H36.9807V29.67L39.2757 33H40.4457V27.33H39.1407V30.66L36.8457 27.33H35.6757V33ZM11.0808 43H11.9808V39.94H9.23578V41.02H10.4958C10.3518 41.38 9.96478 41.785 9.23578 41.785C8.41678 41.785 7.75078 41.101 7.75078 40.165C7.75078 39.229 8.41678 38.545 9.23578 38.545C9.91078 38.545 10.3068 38.95 10.4508 39.355L11.8008 39.265C11.5308 38.221 10.5858 37.285 9.23578 37.285C7.69678 37.285 6.44578 38.545 6.44578 40.165C6.44578 41.785 7.69678 43.045 9.23578 43.045C9.73978 43.045 10.1358 42.901 10.4148 42.757C10.5768 42.676 10.7208 42.577 10.8558 42.46L11.0808 43ZM12.8836 40.705C12.8836 42.1 13.8286 43.045 15.2236 43.045C16.6186 43.045 17.5636 42.1 17.5636 40.705V37.33H16.2586V40.705C16.2586 41.389 15.8626 41.785 15.2236 41.785C14.5846 41.785 14.1886 41.389 14.1886 40.705V37.33H12.8836V40.705ZM19.8639 40.795L20.4939 38.905L21.1239 40.795H19.8639ZM17.7939 43H19.1439L19.5039 41.92H21.4839L21.8439 43H23.1939L21.1689 37.33H19.8189L17.7939 43ZM23.6875 43H24.9925V41.11H25.6675L26.7025 43H28.1425L26.8825 40.84C26.8915 40.84 27.9715 40.399 27.9625 39.13C27.9625 38.149 27.1615 37.33 25.9825 37.33H23.6875V43ZM24.9925 39.85V38.59H25.9825C26.4415 38.59 26.7025 38.86 26.7025 39.22C26.7025 39.58 26.4415 39.85 25.9825 39.85H24.9925ZM30.3053 40.795L30.9353 38.905L31.5653 40.795H30.3053ZM28.2353 43H29.5853L29.9453 41.92H31.9253L32.2853 43H33.6353L31.6103 37.33H30.2603L28.2353 43ZM34.1289 43H35.4339V39.67L37.7289 43H38.8989V37.33H37.5939V40.66L35.2989 37.33H34.1289V43ZM41.1524 43H42.4574V38.59H44.0774V37.33H39.5324V38.59H41.1524V43ZM44.7109 43H48.8509V41.74H46.0159V40.75H48.5359V39.49H46.0159V38.59H48.7609V37.33H44.7109V43ZM49.747 43H53.887V41.74H51.052V40.75H53.572V39.49H51.052V38.59H53.797V37.33H49.747V43ZM56.0882 41.74V38.59H56.7182C57.5822 38.59 58.2482 39.265 58.2482 40.165C58.2482 41.065 57.5822 41.74 56.7182 41.74H56.0882ZM54.7832 43H56.7182C58.2932 43 59.5532 41.74 59.5532 40.165C59.5532 38.59 58.2932 37.33 56.7182 37.33H54.7832V43Z" fill="white"/>
</svg>
