<svg width="22" height="25" viewBox="0 0 22 25" fill="none" xmlns="http://www.w3.org/2000/svg">
<path d="M17.7436 12.8311H4.19434V15.3318H17.7436V12.8311Z" fill="#01A8FF"/>
<path d="M17.7442 12.8311H11.0469V15.3318H17.7442V12.8311Z" fill="#01A8FF"/>
<path d="M20.3493 6.24066L17.7408 13.576H4.19653L1.58805 6.24066C1.45697 5.87328 1.56073 5.46861 1.8522 5.20948C2.14314 4.9503 2.55721 4.89425 2.9067 5.06601L6.88646 7.02509L10.0654 2.48432C10.2715 2.18991 10.609 2.01367 10.9685 2.01367C10.9948 2.01367 11.0206 2.01468 11.0464 2.01666C11.3771 2.03999 11.6809 2.21131 11.872 2.48432L15.0505 7.02509L19.0307 5.06601C19.3802 4.8942 19.7943 4.9503 20.0852 5.20948C20.3765 5.46861 20.4803 5.87324 20.3493 6.24066Z" fill="#FFA91D"/>
<path d="M12.2221 1.24622C12.2221 1.91051 11.7018 2.45364 11.0465 2.49036C11.0231 2.49185 10.9998 2.49234 10.976 2.49234C10.2873 2.49234 9.72931 1.93431 9.72931 1.24617C9.72931 0.558024 10.2873 0 10.976 0C10.9998 0 11.0231 0.000481928 11.0465 0.0019759C11.7018 0.0387952 12.2221 0.581927 12.2221 1.24622Z" fill="#01A8FF"/>
<path d="M1.24617 5.74514C1.93441 5.74514 2.49234 5.18722 2.49234 4.49898C2.49234 3.81074 1.93441 3.25281 1.24617 3.25281C0.557929 3.25281 0 3.81074 0 4.49898C0 5.18722 0.557929 5.74514 1.24617 5.74514Z" fill="#01A8FF"/>
<path d="M20.754 5.94363C21.4422 5.94363 22.0001 5.3857 22.0001 4.69746C22.0001 4.00922 21.4422 3.45129 20.754 3.45129C20.0657 3.45129 19.5078 4.00922 19.5078 4.69746C19.5078 5.3857 20.0657 5.94363 20.754 5.94363Z" fill="#01A8FF"/>
<path d="M17.7413 13.5761H11.0469V2.01672C11.3775 2.04005 11.6814 2.21137 11.8725 2.48439L15.0509 7.02516L19.0312 5.06607C19.3807 4.89427 19.7947 4.95036 20.0857 5.20954C20.3771 5.46872 20.4808 5.87335 20.3498 6.24072L17.7413 13.5761Z" fill="#FF8900"/>
<path d="M11.0469 2.49041V0.0020752C11.7022 0.0387981 12.2225 0.58193 12.2225 1.24622C12.2226 1.91056 11.7022 2.45369 11.0469 2.49041Z" fill="#01A8FF"/>
<path d="M21.1887 14.702H0.810547V24.6747H21.1887V14.702Z" fill="#E70020"/>
<path d="M9.8669 17.5605L8.69476 20.9976L8.22064 19.7401L9.00411 17.567H8.00319L7.52907 19.0619L7.05495 17.567H6.06049L6.83105 19.7401L6.37033 20.9976L5.19119 17.5605H4.01953L5.88281 22.2358H6.79187L7.52912 20.4048L8.27336 22.2358H9.17548L11.0457 17.5605H9.8669Z" fill="white"/>
<path d="M11.4541 17.5605V22.2358H12.5344V17.5605H11.4541Z" fill="white"/>
<path d="M16.4513 17.5605V20.3061L14.2717 17.5605H13.4287V22.2358H14.509V19.5623L16.6623 22.2358H17.5317V17.5605H16.4513Z" fill="white"/>
<path d="M21.1897 14.702H11.0469V24.6747H21.1897V14.702Z" fill="#990013"/>
<path d="M12.5354 17.5607H11.4551V22.2359H12.5354V17.5607Z" fill="white"/>
<path d="M16.453 17.5608H17.5333V22.2361H16.664L14.5108 19.5625V22.2361H13.4305V17.5608H14.2735L16.453 20.3062V17.5608Z" fill="white"/>
</svg>
